<svg width="25" height="24" viewBox="0 0 25 24" fill="none" xmlns="http://www.w3.org/2000/svg">
<path fill-rule="evenodd" clip-rule="evenodd" d="M19.25 10.75V8H20.75V10.75H23.5V12.25H20.75V15H19.25V12.25H16.5V10.75H19.25ZM8.332 12.35C7.596 11.478 7 9.85 7 8.71V7C7 5.93913 7.42143 4.92172 8.17157 4.17157C8.92172 3.42143 9.93913 3 11 3C12.0609 3 13.0783 3.42143 13.8284 4.17157C14.5786 4.92172 15 5.93913 15 7V8.71C15 9.85 14.4 11.483 13.668 12.352L13.307 12.78C12.717 13.479 12.901 14.368 13.726 14.77L19.386 17.532C20.001 17.832 20.5 18.625 20.5 19.315V20.002C20.4995 20.267 20.3937 20.521 20.206 20.7082C20.0184 20.8953 19.764 21.0003 19.499 21H2.5C2.23513 21 1.98108 20.8949 1.7936 20.7078C1.60612 20.5207 1.50053 20.2669 1.5 20.002V19.315C1.5 18.63 1.998 17.832 2.614 17.531L8.274 14.769C9.095 14.369 9.286 13.481 8.694 12.779L8.332 12.35Z" fill="#0000FF"/>
</svg>
