<svg width="116" height="62" viewBox="0 0 116 62" fill="none" xmlns="http://www.w3.org/2000/svg">
<path d="M60.733 30.3665C60.733 47.1374 47.1374 60.733 30.3665 60.733C13.5955 60.733 0 47.1374 0 30.3665C0 13.5955 13.5955 0 30.3665 0C47.1374 0 60.733 13.5955 60.733 30.3665ZM10.6283 30.3665C10.6283 41.2676 19.4654 50.1047 30.3665 50.1047C41.2676 50.1047 50.1047 41.2676 50.1047 30.3665C50.1047 19.4654 41.2676 10.6283 30.3665 10.6283C19.4654 10.6283 10.6283 19.4654 10.6283 30.3665Z" fill="#0000FF"/>
<rect opacity="0.8" x="55.8022" y="61.9966" width="30.3665" height="9.10995" rx="4.55497" transform="rotate(-145 55.8022 61.9966)" fill="#F8C35C"/>
<path d="M81.6841 16.8713H85.4196V28.345C85.4196 29.6333 85.1119 30.7605 84.4965 31.7267C83.8869 32.6929 83.0328 33.4463 81.9343 33.9869C80.8358 34.5218 79.5562 34.7892 78.0954 34.7892C76.6288 34.7892 75.3463 34.5218 74.2478 33.9869C73.1493 33.4463 72.2953 32.6929 71.6856 31.7267C71.076 30.7605 70.7712 29.6333 70.7712 28.345V16.8713H74.5066V28.0258C74.5066 28.6987 74.6533 29.2968 74.9466 29.8202C75.2456 30.3435 75.6655 30.7548 76.2061 31.0538C76.7467 31.3529 77.3765 31.5024 78.0954 31.5024C78.82 31.5024 79.4498 31.3529 79.9846 31.0538C80.5253 30.7548 80.9422 30.3435 81.2355 29.8202C81.5346 29.2968 81.6841 28.6987 81.6841 28.0258V16.8713ZM95.1435 16.8713V34.5391H91.4081V16.8713H95.1435ZM100.942 34.5391V32.322L109.759 19.9511H100.925V16.8713H114.452V19.0884L105.627 31.4593H114.469V34.5391H100.942Z" fill="#0000FF"/>
<path d="M73.3102 39.472H74.3316L76.7334 45.3382H76.8162L79.2179 39.472H80.2393V46.5391H79.4387V41.1697H79.3697L77.1613 46.5391H76.3883L74.1798 41.1697H74.1108V46.5391H73.3102V39.472ZM82.7309 46.5391H81.8337L84.4287 39.472H85.3121L87.907 46.5391H87.0098L84.898 40.59H84.8428L82.7309 46.5391ZM83.0622 43.7785H86.6786V44.5376H83.0622V43.7785ZM93.3585 41.2387C93.3171 40.8891 93.1492 40.6176 92.8547 40.4244C92.5602 40.2311 92.199 40.1345 91.7712 40.1345C91.4583 40.1345 91.1845 40.1851 90.9499 40.2863C90.7175 40.3875 90.5358 40.5267 90.4047 40.7039C90.2758 40.881 90.2114 41.0823 90.2114 41.3077C90.2114 41.4964 90.2563 41.6586 90.346 41.7943C90.438 41.9277 90.5553 42.0393 90.698 42.129C90.8406 42.2164 90.9901 42.2889 91.1466 42.3464C91.303 42.4016 91.4468 42.4465 91.5779 42.481L92.2957 42.6742C92.4797 42.7225 92.6845 42.7893 92.9099 42.8744C93.1376 42.9595 93.355 43.0757 93.5621 43.2229C93.7714 43.3678 93.944 43.5542 94.0797 43.7819C94.2154 44.0097 94.2833 44.2892 94.2833 44.6205C94.2833 45.0023 94.1832 45.3474 93.9831 45.6557C93.7852 45.9639 93.4954 46.2089 93.1135 46.3907C92.7339 46.5724 92.2727 46.6633 91.7297 46.6633C91.2236 46.6633 90.7854 46.5816 90.415 46.4183C90.0469 46.255 89.7571 46.0272 89.5454 45.735C89.3361 45.4429 89.2176 45.1036 89.19 44.7171H90.0734C90.0964 44.9839 90.1861 45.2048 90.3426 45.3796C90.5013 45.5522 90.7014 45.681 90.943 45.7661C91.1868 45.8489 91.4491 45.8903 91.7297 45.8903C92.0564 45.8903 92.3497 45.8374 92.6097 45.7316C92.8696 45.6235 93.0755 45.4739 93.2274 45.283C93.3792 45.0898 93.4551 44.8643 93.4551 44.6066C93.4551 44.372 93.3896 44.1811 93.2584 44.0338C93.1273 43.8866 92.9548 43.767 92.7408 43.675C92.5269 43.5829 92.2957 43.5024 92.0472 43.4334L91.1776 43.1849C90.6255 43.0262 90.1884 42.7996 89.8663 42.5052C89.5443 42.2107 89.3832 41.8254 89.3832 41.3492C89.3832 40.9535 89.4902 40.6084 89.7042 40.3139C89.9204 40.0172 90.2103 39.7871 90.5737 39.6238C90.9395 39.4581 91.3479 39.3753 91.7988 39.3753C92.2543 39.3753 92.6591 39.457 93.0134 39.6203C93.3677 39.7814 93.6484 40.0022 93.8554 40.2829C94.0647 40.5635 94.1752 40.8822 94.1867 41.2387H93.3585ZM95.7897 40.2311V39.472H101.09V40.2311H98.8678V46.5391H98.012V40.2311H95.7897ZM102.897 46.5391V39.472H107.162V40.2311H103.752V42.619H106.941V43.3782H103.752V45.7799H107.217V46.5391H102.897ZM109.19 46.5391V39.472H111.578C112.13 39.472 112.583 39.5663 112.938 39.7549C113.292 39.9413 113.554 40.1978 113.724 40.5244C113.895 40.8511 113.98 41.2226 113.98 41.639C113.98 42.0554 113.895 42.4246 113.724 42.7467C113.554 43.0688 113.293 43.3218 112.941 43.5059C112.589 43.6876 112.139 43.7785 111.592 43.7785H109.659V43.0055H111.564C111.942 43.0055 112.245 42.9503 112.475 42.8399C112.708 42.7294 112.876 42.573 112.979 42.3706C113.085 42.1658 113.138 41.922 113.138 41.639C113.138 41.3561 113.085 41.1088 112.979 40.8971C112.873 40.6855 112.704 40.5221 112.472 40.4071C112.239 40.2898 111.932 40.2311 111.55 40.2311H110.046V46.5391H109.19ZM112.517 43.3644L114.256 46.5391H113.262L111.55 43.3644H112.517Z" fill="#F8C35C"/>
</svg>
