<svg width="30" height="30" viewBox="0 0 30 30" fill="none" xmlns="http://www.w3.org/2000/svg">
<path d="M15 27.5C18.4517 27.5 21.5768 26.1009 23.8388 23.8388C26.1009 21.5768 27.5 18.4517 27.5 15C27.5 11.5483 26.1009 8.42325 23.8388 6.16116C21.5768 3.89911 18.4517 2.5 15 2.5C11.5483 2.5 8.42325 3.89911 6.16116 6.16116C3.89911 8.42325 2.5 11.5483 2.5 15C2.5 18.4517 3.89911 21.5768 6.16116 23.8388C8.42325 26.1009 11.5483 27.5 15 27.5Z" fill="#2F88FF" stroke="black" stroke-width="2" stroke-linejoin="round"/>
<path d="M15 17.8906V15.3906C17.0711 15.3906 18.75 13.7117 18.75 11.6406C18.75 9.56956 17.0711 7.89062 15 7.89062C12.9289 7.89062 11.25 9.56956 11.25 11.6406" stroke="white" stroke-width="2" stroke-linecap="round" stroke-linejoin="round"/>
<path fill-rule="evenodd" clip-rule="evenodd" d="M15 23.5156C15.8629 23.5156 16.5625 22.8161 16.5625 21.9531C16.5625 21.0902 15.8629 20.3906 15 20.3906C14.1371 20.3906 13.4375 21.0902 13.4375 21.9531C13.4375 22.8161 14.1371 23.5156 15 23.5156Z" fill="white"/>
</svg>
