<svg width="50" height="50" viewBox="0 0 50 50" fill="none" xmlns="http://www.w3.org/2000/svg">
<path d="M10.4167 43.75C9.27083 43.75 8.29028 43.3424 7.475 42.5271C6.65972 41.7118 6.25139 40.7306 6.25 39.5833V10.4167C6.25 9.27083 6.65833 8.29028 7.475 7.475C8.29167 6.65972 9.27222 6.25139 10.4167 6.25H39.5833C40.7292 6.25 41.7104 6.65833 42.5271 7.475C43.3438 8.29167 43.7514 9.27222 43.75 10.4167V39.5833C43.75 40.7292 43.3424 41.7104 42.5271 42.5271C41.7118 43.3438 40.7306 43.7514 39.5833 43.75H10.4167ZM14.5833 35.4167H35.4167C35.8333 35.4167 36.1458 35.2257 36.3542 34.8438C36.5625 34.4618 36.5278 34.0972 36.25 33.75L30.5208 26.0937C30.3125 25.816 30.0347 25.6771 29.6875 25.6771C29.3403 25.6771 29.0625 25.816 28.8542 26.0937L23.4375 33.3333L19.5833 28.1771C19.375 27.8993 19.0972 27.7604 18.75 27.7604C18.4028 27.7604 18.125 27.8993 17.9167 28.1771L13.75 33.75C13.4722 34.0972 13.4375 34.4618 13.6458 34.8438C13.8542 35.2257 14.1667 35.4167 14.5833 35.4167Z" fill="#0000FF"/>
</svg>
