<svg width="32" height="32" viewBox="0 0 32 32" fill="none" xmlns="http://www.w3.org/2000/svg">
<path d="M16 2L4 6V18C4 24.6281 9.37187 30 16 30C22.6281 30 28 24.6281 28 18V6L16 2ZM25.75 18C25.75 23.3844 21.3844 27.75 16 27.75C10.6156 27.75 6.25 23.3844 6.25 18V7.6875L16 4.25L25.75 7.6875V18Z" fill="black"/>
<path d="M11.8249 14.8469C11.7207 14.7421 11.5967 14.659 11.4602 14.6023C11.3238 14.5456 11.1774 14.5164 11.0296 14.5164C10.8818 14.5164 10.7355 14.5456 10.599 14.6023C10.4625 14.659 10.3386 14.7421 10.2343 14.8469C10.1296 14.9511 10.0464 15.0751 9.98972 15.2116C9.933 15.348 9.90381 15.4944 9.90381 15.6422C9.90381 15.79 9.933 15.9363 9.98972 16.0728C10.0464 16.2093 10.1296 16.3332 10.2343 16.4375L14.278 20.4813L14.3437 20.5469C14.4423 20.6457 14.5595 20.7241 14.6884 20.7776C14.8174 20.8311 14.9556 20.8586 15.0952 20.8586C15.2349 20.8586 15.3731 20.8311 15.5021 20.7776C15.631 20.7241 15.7482 20.6457 15.8468 20.5469L22.8312 13.5625C22.93 13.4639 23.0084 13.3467 23.0619 13.2178C23.1154 13.0888 23.1429 12.9506 23.1429 12.8109C23.1429 12.6713 23.1154 12.5331 23.0619 12.4041C23.0084 12.2752 22.93 12.158 22.8312 12.0594L22.7437 11.9719C22.645 11.8731 22.5279 11.7947 22.3989 11.7412C22.27 11.6877 22.1317 11.6602 21.9921 11.6602C21.8525 11.6602 21.7143 11.6877 21.5853 11.7412C21.4563 11.7947 21.3392 11.8731 21.2406 11.9719L15.0937 18.1156L11.8249 14.8469Z" fill="black"/>
</svg>
