<svg width="30" height="30" viewBox="0 0 30 30" fill="none" xmlns="http://www.w3.org/2000/svg">
<path d="M15.2766 14.418C9.58599 14.418 4.96411 19.0305 4.96411 24.7305V28.0117H25.5797V24.7305C25.5797 19.0305 20.9672 14.418 15.2766 14.418Z" fill="#56436B"/>
<path d="M15.2766 14.418C9.58599 14.418 4.96411 19.0305 4.96411 24.7305V28.0117H25.5797V24.7305C25.5797 19.0305 20.9672 14.418 15.2766 14.418Z" fill="url(#paint0_radial_98_840)"/>
<path d="M15.2766 14.418C9.58599 14.418 4.96411 19.0305 4.96411 24.7305V28.0117H25.5797V24.7305C25.5797 19.0305 20.9672 14.418 15.2766 14.418Z" fill="url(#paint1_radial_98_840)"/>
<path d="M21.8541 16.8554C21.8766 16.8104 21.8833 16.7592 21.8733 16.7099C21.8633 16.6606 21.837 16.6161 21.7988 16.5835C20.0588 15.0807 17.7244 14.252 15.2794 14.252C12.8344 14.252 10.4859 15.0901 8.74501 16.5835C8.70658 16.616 8.68015 16.6605 8.66995 16.7097C8.65975 16.759 8.66637 16.8103 8.68876 16.8554C9.88501 19.2929 12.21 21.181 15.2794 21.181C18.3488 21.181 20.6513 19.292 21.8541 16.8554Z" fill="url(#paint2_radial_98_840)"/>
<path d="M21.8541 16.8554C21.8766 16.8104 21.8833 16.7592 21.8733 16.7099C21.8633 16.6606 21.837 16.6161 21.7988 16.5835C20.0588 15.0807 17.7244 14.252 15.2794 14.252C12.8344 14.252 10.4859 15.0901 8.74501 16.5835C8.70658 16.616 8.68015 16.6605 8.66995 16.7097C8.65975 16.759 8.66637 16.8103 8.68876 16.8554C9.88501 19.2929 12.21 21.181 15.2794 21.181C18.3488 21.181 20.6513 19.292 21.8541 16.8554Z" fill="url(#paint3_radial_98_840)"/>
<path d="M21.8541 16.8554C21.8766 16.8104 21.8833 16.7592 21.8733 16.7099C21.8633 16.6606 21.837 16.6161 21.7988 16.5835C20.0588 15.0807 17.7244 14.252 15.2794 14.252C12.8344 14.252 10.4859 15.0901 8.74501 16.5835C8.70658 16.616 8.68015 16.6605 8.66995 16.7097C8.65975 16.759 8.66637 16.8103 8.68876 16.8554C9.88501 19.2929 12.21 21.181 15.2794 21.181C18.3488 21.181 20.6513 19.292 21.8541 16.8554Z" fill="url(#paint4_radial_98_840)"/>
<path d="M21.8541 16.8554C21.8766 16.8104 21.8833 16.7592 21.8733 16.7099C21.8633 16.6606 21.837 16.6161 21.7988 16.5835C20.0588 15.0807 17.7244 14.252 15.2794 14.252C12.8344 14.252 10.4859 15.0901 8.74501 16.5835C8.70658 16.616 8.68015 16.6605 8.66995 16.7097C8.65975 16.759 8.66637 16.8103 8.68876 16.8554C9.88501 19.2929 12.21 21.181 15.2794 21.181C18.3488 21.181 20.6513 19.292 21.8541 16.8554Z" fill="url(#paint5_radial_98_840)"/>
<path d="M21.8541 16.8554C21.8766 16.8104 21.8833 16.7592 21.8733 16.7099C21.8633 16.6606 21.837 16.6161 21.7988 16.5835C20.0588 15.0807 17.7244 14.252 15.2794 14.252C12.8344 14.252 10.4859 15.0901 8.74501 16.5835C8.70658 16.616 8.68015 16.6605 8.66995 16.7097C8.65975 16.759 8.66637 16.8103 8.68876 16.8554C9.88501 19.2929 12.21 21.181 15.2794 21.181C18.3488 21.181 20.6513 19.292 21.8541 16.8554Z" fill="url(#paint6_radial_98_840)"/>
<path d="M21.8541 16.8554C21.8766 16.8104 21.8833 16.7592 21.8733 16.7099C21.8633 16.6606 21.837 16.6161 21.7988 16.5835C20.0588 15.0807 17.7244 14.252 15.2794 14.252C12.8344 14.252 10.4859 15.0901 8.74501 16.5835C8.70658 16.616 8.68015 16.6605 8.66995 16.7097C8.65975 16.759 8.66637 16.8103 8.68876 16.8554C9.88501 19.2929 12.21 21.181 15.2794 21.181C18.3488 21.181 20.6513 19.292 21.8541 16.8554Z" fill="url(#paint7_radial_98_840)"/>
<path d="M19.8047 11.1676C20.1197 11.1573 20.4159 11.0504 20.6559 10.877V11.7535C20.6581 12.1597 20.5393 12.5573 20.3145 12.8956C20.0898 13.2339 19.7693 13.4975 19.394 13.6529C19.5547 13.311 19.6631 12.941 19.7194 12.5429L19.8047 11.1676Z" fill="url(#paint8_radial_98_840)"/>
<path d="M19.8047 11.1676C20.1197 11.1573 20.4159 11.0504 20.6559 10.877V11.7535C20.6581 12.1597 20.5393 12.5573 20.3145 12.8956C20.0898 13.2339 19.7693 13.4975 19.394 13.6529C19.5547 13.311 19.6631 12.941 19.7194 12.5429L19.8047 11.1676Z" fill="url(#paint9_radial_98_840)"/>
<path d="M10.6501 11.1676C10.3442 11.157 10.0483 11.0558 9.79983 10.877V11.7535C9.79763 12.1597 9.91649 12.5573 10.1412 12.8956C10.366 13.2339 10.6865 13.4975 11.0617 13.6529C10.8979 13.3014 10.7882 12.9272 10.7364 12.5429L10.6501 11.1676Z" fill="url(#paint10_radial_98_840)"/>
<path d="M10.6501 11.1676C10.3442 11.157 10.0483 11.0558 9.79983 10.877V11.7535C9.79763 12.1597 9.91649 12.5573 10.1412 12.8956C10.366 13.2339 10.6865 13.4975 11.0617 13.6529C10.8979 13.3014 10.7882 12.9272 10.7364 12.5429L10.6501 11.1676Z" fill="url(#paint11_radial_98_840)"/>
<path d="M14.9964 17.578C15.0554 17.6192 15.1558 17.653 15.2589 17.6577C15.3518 17.6551 15.4424 17.6279 15.5214 17.5789C16.4748 16.9264 17.1901 16.2758 17.1901 15.1536V11.7477C17.1901 10.6789 16.3276 9.81641 15.2589 9.81641C14.1901 9.81641 13.3276 10.6789 13.3276 11.7477V15.1536C13.3276 16.2758 14.0439 16.9245 14.9964 17.578Z" fill="url(#paint12_radial_98_840)"/>
<g filter="url(#filter0_ii_98_840)">
<path d="M10.6857 12.5938C10.8019 13.4814 11.2373 14.2964 11.9105 14.8864C12.5837 15.4765 13.4487 15.8012 14.3439 15.8H16.1195C17.0147 15.8012 17.8797 15.4765 18.5529 14.8864C19.2261 14.2964 19.6614 13.4814 19.7776 12.5938C19.8892 10.821 20.0007 9.05473 20.0832 7.28191C20.0796 6.93399 19.9431 6.60062 19.7017 6.35001C19.4603 6.09941 19.1323 5.95051 18.7848 5.93379H17.4657C17.0244 5.93313 16.5928 5.80431 16.2234 5.56299C15.8539 5.32167 15.5625 4.97823 15.3845 4.57441C15.3379 4.45866 15.258 4.3594 15.1548 4.28927C15.0516 4.21915 14.9299 4.18134 14.8051 4.18066H13.607C11.8689 4.18066 10.4617 5.60473 10.4617 7.3616C10.4617 9.11379 10.5704 10.8369 10.6857 12.5929" fill="url(#paint13_radial_98_840)"/>
</g>
<path d="M10.6857 12.5938C10.8019 13.4814 11.2373 14.2964 11.9105 14.8864C12.5837 15.4765 13.4487 15.8012 14.3439 15.8H16.1195C17.0147 15.8012 17.8797 15.4765 18.5529 14.8864C19.2261 14.2964 19.6614 13.4814 19.7776 12.5938C19.8892 10.821 20.0007 9.05473 20.0832 7.28191C20.0796 6.93399 19.9431 6.60062 19.7017 6.35001C19.4603 6.09941 19.1323 5.95051 18.7848 5.93379H17.4657C17.0244 5.93313 16.5928 5.80431 16.2234 5.56299C15.8539 5.32167 15.5625 4.97823 15.3845 4.57441C15.3379 4.45866 15.258 4.3594 15.1548 4.28927C15.0516 4.21915 14.9299 4.18134 14.8051 4.18066H13.607C11.8689 4.18066 10.4617 5.60473 10.4617 7.3616C10.4617 9.11379 10.5704 10.8369 10.6857 12.5929" fill="url(#paint14_radial_98_840)"/>
<path d="M10.6857 12.5938C10.8019 13.4814 11.2373 14.2964 11.9105 14.8864C12.5837 15.4765 13.4487 15.8012 14.3439 15.8H16.1195C17.0147 15.8012 17.8797 15.4765 18.5529 14.8864C19.2261 14.2964 19.6614 13.4814 19.7776 12.5938C19.8892 10.821 20.0007 9.05473 20.0832 7.28191C20.0796 6.93399 19.9431 6.60062 19.7017 6.35001C19.4603 6.09941 19.1323 5.95051 18.7848 5.93379H17.4657C17.0244 5.93313 16.5928 5.80431 16.2234 5.56299C15.8539 5.32167 15.5625 4.97823 15.3845 4.57441C15.3379 4.45866 15.258 4.3594 15.1548 4.28927C15.0516 4.21915 14.9299 4.18134 14.8051 4.18066H13.607C11.8689 4.18066 10.4617 5.60473 10.4617 7.3616C10.4617 9.11379 10.5704 10.8369 10.6857 12.5929" fill="url(#paint15_radial_98_840)"/>
<path d="M10.6857 12.5938C10.8019 13.4814 11.2373 14.2964 11.9105 14.8864C12.5837 15.4765 13.4487 15.8012 14.3439 15.8H16.1195C17.0147 15.8012 17.8797 15.4765 18.5529 14.8864C19.2261 14.2964 19.6614 13.4814 19.7776 12.5938C19.8892 10.821 20.0007 9.05473 20.0832 7.28191C20.0796 6.93399 19.9431 6.60062 19.7017 6.35001C19.4603 6.09941 19.1323 5.95051 18.7848 5.93379H17.4657C17.0244 5.93313 16.5928 5.80431 16.2234 5.56299C15.8539 5.32167 15.5625 4.97823 15.3845 4.57441C15.3379 4.45866 15.258 4.3594 15.1548 4.28927C15.0516 4.21915 14.9299 4.18134 14.8051 4.18066H13.607C11.8689 4.18066 10.4617 5.60473 10.4617 7.3616C10.4617 9.11379 10.5704 10.8369 10.6857 12.5929" fill="url(#paint16_radial_98_840)"/>
<path d="M10.6857 12.5938C10.8019 13.4814 11.2373 14.2964 11.9105 14.8864C12.5837 15.4765 13.4487 15.8012 14.3439 15.8H16.1195C17.0147 15.8012 17.8797 15.4765 18.5529 14.8864C19.2261 14.2964 19.6614 13.4814 19.7776 12.5938C19.8892 10.821 20.0007 9.05473 20.0832 7.28191C20.0796 6.93399 19.9431 6.60062 19.7017 6.35001C19.4603 6.09941 19.1323 5.95051 18.7848 5.93379H17.4657C17.0244 5.93313 16.5928 5.80431 16.2234 5.56299C15.8539 5.32167 15.5625 4.97823 15.3845 4.57441C15.3379 4.45866 15.258 4.3594 15.1548 4.28927C15.0516 4.21915 14.9299 4.18134 14.8051 4.18066H13.607C11.8689 4.18066 10.4617 5.60473 10.4617 7.3616C10.4617 9.11379 10.5704 10.8369 10.6857 12.5929" fill="url(#paint17_radial_98_840)"/>
<path d="M10.6857 12.5938C10.8019 13.4814 11.2373 14.2964 11.9105 14.8864C12.5837 15.4765 13.4487 15.8012 14.3439 15.8H16.1195C17.0147 15.8012 17.8797 15.4765 18.5529 14.8864C19.2261 14.2964 19.6614 13.4814 19.7776 12.5938C19.8892 10.821 20.0007 9.05473 20.0832 7.28191C20.0796 6.93399 19.9431 6.60062 19.7017 6.35001C19.4603 6.09941 19.1323 5.95051 18.7848 5.93379H17.4657C17.0244 5.93313 16.5928 5.80431 16.2234 5.56299C15.8539 5.32167 15.5625 4.97823 15.3845 4.57441C15.3379 4.45866 15.258 4.3594 15.1548 4.28927C15.0516 4.21915 14.9299 4.18134 14.8051 4.18066H13.607C11.8689 4.18066 10.4617 5.60473 10.4617 7.3616C10.4617 9.11379 10.5704 10.8369 10.6857 12.5929" fill="url(#paint18_radial_98_840)"/>
<g filter="url(#filter1_f_98_840)">
<path d="M14.7705 9.50313L14.1724 11.2328C14.0702 11.5891 14.3149 11.9453 14.6627 11.9453H15.4033C15.7502 11.9453 15.9939 11.5834 15.8927 11.2328L15.392 9.50313C15.2852 9.11875 14.882 9.11875 14.7705 9.50313Z" fill="#EE9020"/>
</g>
<g filter="url(#filter2_f_98_840)">
<path d="M14.868 9.31883L14.3674 11.0485C14.2652 11.4048 14.5108 11.761 14.8577 11.761H15.5983C15.9452 11.761 16.1889 11.3991 16.0877 11.0485L15.587 9.31883C15.4802 8.93539 14.9795 8.93539 14.868 9.31883Z" fill="url(#paint19_linear_98_840)"/>
<path d="M14.868 9.31883L14.3674 11.0485C14.2652 11.4048 14.5108 11.761 14.8577 11.761H15.5983C15.9452 11.761 16.1889 11.3991 16.0877 11.0485L15.587 9.31883C15.4802 8.93539 14.9795 8.93539 14.868 9.31883Z" fill="url(#paint20_linear_98_840)"/>
<path d="M14.868 9.31883L14.3674 11.0485C14.2652 11.4048 14.5108 11.761 14.8577 11.761H15.5983C15.9452 11.761 16.1889 11.3991 16.0877 11.0485L15.587 9.31883C15.4802 8.93539 14.9795 8.93539 14.868 9.31883Z" fill="url(#paint21_linear_98_840)"/>
<path d="M14.868 9.31883L14.3674 11.0485C14.2652 11.4048 14.5108 11.761 14.8577 11.761H15.5983C15.9452 11.761 16.1889 11.3991 16.0877 11.0485L15.587 9.31883C15.4802 8.93539 14.9795 8.93539 14.868 9.31883Z" fill="url(#paint22_linear_98_840)"/>
</g>
<g filter="url(#filter3_f_98_840)">
<path d="M13.9557 12.3465C14.3232 12.5377 14.7611 12.6474 15.2279 12.6474C15.6995 12.6474 16.1326 12.5377 16.4992 12.3474L16.5001 12.3465C16.5413 12.3251 16.5882 12.3176 16.634 12.3251C16.6798 12.3325 16.7219 12.3545 16.7542 12.3877C16.7874 12.4212 16.8078 12.4652 16.8119 12.5121C16.816 12.559 16.8035 12.6059 16.7767 12.6446M13.9557 12.3465L16.7186 12.6052M13.9557 12.3465C13.9142 12.3253 13.8669 12.3181 13.8209 12.326C13.7749 12.334 13.7328 12.3566 13.7008 12.3906C13.6676 12.4235 13.6472 12.4671 13.6433 12.5136C13.6393 12.5602 13.6521 12.6066 13.6792 12.6446M13.9557 12.3465L13.7373 12.6052M16.7767 12.6446L16.7186 12.6052M16.7767 12.6446C16.4486 13.1415 15.8776 13.4724 15.2279 13.4724C14.9215 13.473 14.6197 13.3977 14.3495 13.2533C14.0792 13.1088 13.849 12.8997 13.6792 12.6446M16.7186 12.6052C16.4026 13.0834 15.8532 13.4021 15.2279 13.4021C14.9329 13.4031 14.6423 13.3308 14.3821 13.1917C14.1219 13.0527 13.9003 12.8511 13.7373 12.6052M13.6792 12.6446V12.6456L13.7373 12.6052M13.6792 12.6446L13.7373 12.6052" stroke="url(#paint23_radial_98_840)" stroke-width="0.075"/>
</g>
<path d="M15.2279 12.7177C14.7497 12.7177 14.3007 12.6052 13.9238 12.4083C13.7944 12.3427 13.6557 12.488 13.7363 12.6052C14.0522 13.0833 14.6016 13.4021 15.2269 13.4021C15.5219 13.4031 15.8126 13.3308 16.0728 13.1917C16.333 13.0526 16.5545 12.8511 16.7176 12.6052C16.7991 12.4833 16.6613 12.3427 16.5319 12.4083C16.1285 12.615 15.6811 12.7212 15.2279 12.7177Z" fill="url(#paint24_radial_98_840)"/>
<g filter="url(#filter4_ii_98_840)">
<path d="M19.7983 3.73762C20.283 3.90449 20.717 4.24293 20.9917 4.72762C21.4314 5.50012 21.3667 6.42449 20.8914 7.10605C20.7267 7.34869 20.6382 7.63499 20.6374 7.92824V9.04668C20.4478 8.91987 20.2339 8.83398 20.0092 8.79449L20.0833 7.2823C20.0796 6.93438 19.9431 6.60101 19.7018 6.3504C19.4604 6.0998 19.1324 5.9509 18.7849 5.93418H17.4658C17.0244 5.93378 16.5927 5.80519 16.2231 5.56403C15.8534 5.32287 15.5618 4.97953 15.3836 4.57574C15.3371 4.45999 15.2571 4.36073 15.1539 4.2906C15.0507 4.22047 14.929 4.18267 14.8042 4.18199H13.6061C11.868 4.18199 10.4608 5.60605 10.4608 7.36293L10.4889 8.81043C10.2469 8.84031 10.0151 8.9253 9.8111 9.05887V7.92824C9.8111 7.63574 9.7211 7.34793 9.55704 7.10605C9.32886 6.77016 9.19584 6.37879 9.17207 5.97342C9.1483 5.56805 9.23468 5.16381 9.42204 4.80355C9.6801 4.30748 10.1171 3.92809 10.6445 3.7423C11.1846 3.55162 11.6439 3.18345 11.9477 2.69793C12.3377 2.07637 13.022 1.82324 13.8058 1.82324C14.1105 1.82324 14.4002 1.88887 14.6692 2.00043C15.0292 2.15699 15.4333 2.15699 15.7933 2.00043C16.0577 1.88887 16.3464 1.82324 16.652 1.82324C17.4452 1.82324 18.1399 2.09137 18.5242 2.72793C18.8165 3.20389 19.2683 3.56145 19.7983 3.73762Z" fill="url(#paint25_linear_98_840)"/>
<path d="M19.7983 3.73762C20.283 3.90449 20.717 4.24293 20.9917 4.72762C21.4314 5.50012 21.3667 6.42449 20.8914 7.10605C20.7267 7.34869 20.6382 7.63499 20.6374 7.92824V9.04668C20.4478 8.91987 20.2339 8.83398 20.0092 8.79449L20.0833 7.2823C20.0796 6.93438 19.9431 6.60101 19.7018 6.3504C19.4604 6.0998 19.1324 5.9509 18.7849 5.93418H17.4658C17.0244 5.93378 16.5927 5.80519 16.2231 5.56403C15.8534 5.32287 15.5618 4.97953 15.3836 4.57574C15.3371 4.45999 15.2571 4.36073 15.1539 4.2906C15.0507 4.22047 14.929 4.18267 14.8042 4.18199H13.6061C11.868 4.18199 10.4608 5.60605 10.4608 7.36293L10.4889 8.81043C10.2469 8.84031 10.0151 8.9253 9.8111 9.05887V7.92824C9.8111 7.63574 9.7211 7.34793 9.55704 7.10605C9.32886 6.77016 9.19584 6.37879 9.17207 5.97342C9.1483 5.56805 9.23468 5.16381 9.42204 4.80355C9.6801 4.30748 10.1171 3.92809 10.6445 3.7423C11.1846 3.55162 11.6439 3.18345 11.9477 2.69793C12.3377 2.07637 13.022 1.82324 13.8058 1.82324C14.1105 1.82324 14.4002 1.88887 14.6692 2.00043C15.0292 2.15699 15.4333 2.15699 15.7933 2.00043C16.0577 1.88887 16.3464 1.82324 16.652 1.82324C17.4452 1.82324 18.1399 2.09137 18.5242 2.72793C18.8165 3.20389 19.2683 3.56145 19.7983 3.73762Z" fill="url(#paint26_radial_98_840)"/>
<path d="M19.7983 3.73762C20.283 3.90449 20.717 4.24293 20.9917 4.72762C21.4314 5.50012 21.3667 6.42449 20.8914 7.10605C20.7267 7.34869 20.6382 7.63499 20.6374 7.92824V9.04668C20.4478 8.91987 20.2339 8.83398 20.0092 8.79449L20.0833 7.2823C20.0796 6.93438 19.9431 6.60101 19.7018 6.3504C19.4604 6.0998 19.1324 5.9509 18.7849 5.93418H17.4658C17.0244 5.93378 16.5927 5.80519 16.2231 5.56403C15.8534 5.32287 15.5618 4.97953 15.3836 4.57574C15.3371 4.45999 15.2571 4.36073 15.1539 4.2906C15.0507 4.22047 14.929 4.18267 14.8042 4.18199H13.6061C11.868 4.18199 10.4608 5.60605 10.4608 7.36293L10.4889 8.81043C10.2469 8.84031 10.0151 8.9253 9.8111 9.05887V7.92824C9.8111 7.63574 9.7211 7.34793 9.55704 7.10605C9.32886 6.77016 9.19584 6.37879 9.17207 5.97342C9.1483 5.56805 9.23468 5.16381 9.42204 4.80355C9.6801 4.30748 10.1171 3.92809 10.6445 3.7423C11.1846 3.55162 11.6439 3.18345 11.9477 2.69793C12.3377 2.07637 13.022 1.82324 13.8058 1.82324C14.1105 1.82324 14.4002 1.88887 14.6692 2.00043C15.0292 2.15699 15.4333 2.15699 15.7933 2.00043C16.0577 1.88887 16.3464 1.82324 16.652 1.82324C17.4452 1.82324 18.1399 2.09137 18.5242 2.72793C18.8165 3.20389 19.2683 3.56145 19.7983 3.73762Z" fill="url(#paint27_radial_98_840)"/>
<path d="M19.7983 3.73762C20.283 3.90449 20.717 4.24293 20.9917 4.72762C21.4314 5.50012 21.3667 6.42449 20.8914 7.10605C20.7267 7.34869 20.6382 7.63499 20.6374 7.92824V9.04668C20.4478 8.91987 20.2339 8.83398 20.0092 8.79449L20.0833 7.2823C20.0796 6.93438 19.9431 6.60101 19.7018 6.3504C19.4604 6.0998 19.1324 5.9509 18.7849 5.93418H17.4658C17.0244 5.93378 16.5927 5.80519 16.2231 5.56403C15.8534 5.32287 15.5618 4.97953 15.3836 4.57574C15.3371 4.45999 15.2571 4.36073 15.1539 4.2906C15.0507 4.22047 14.929 4.18267 14.8042 4.18199H13.6061C11.868 4.18199 10.4608 5.60605 10.4608 7.36293L10.4889 8.81043C10.2469 8.84031 10.0151 8.9253 9.8111 9.05887V7.92824C9.8111 7.63574 9.7211 7.34793 9.55704 7.10605C9.32886 6.77016 9.19584 6.37879 9.17207 5.97342C9.1483 5.56805 9.23468 5.16381 9.42204 4.80355C9.6801 4.30748 10.1171 3.92809 10.6445 3.7423C11.1846 3.55162 11.6439 3.18345 11.9477 2.69793C12.3377 2.07637 13.022 1.82324 13.8058 1.82324C14.1105 1.82324 14.4002 1.88887 14.6692 2.00043C15.0292 2.15699 15.4333 2.15699 15.7933 2.00043C16.0577 1.88887 16.3464 1.82324 16.652 1.82324C17.4452 1.82324 18.1399 2.09137 18.5242 2.72793C18.8165 3.20389 19.2683 3.56145 19.7983 3.73762Z" fill="url(#paint28_radial_98_840)"/>
<path d="M19.7983 3.73762C20.283 3.90449 20.717 4.24293 20.9917 4.72762C21.4314 5.50012 21.3667 6.42449 20.8914 7.10605C20.7267 7.34869 20.6382 7.63499 20.6374 7.92824V9.04668C20.4478 8.91987 20.2339 8.83398 20.0092 8.79449L20.0833 7.2823C20.0796 6.93438 19.9431 6.60101 19.7018 6.3504C19.4604 6.0998 19.1324 5.9509 18.7849 5.93418H17.4658C17.0244 5.93378 16.5927 5.80519 16.2231 5.56403C15.8534 5.32287 15.5618 4.97953 15.3836 4.57574C15.3371 4.45999 15.2571 4.36073 15.1539 4.2906C15.0507 4.22047 14.929 4.18267 14.8042 4.18199H13.6061C11.868 4.18199 10.4608 5.60605 10.4608 7.36293L10.4889 8.81043C10.2469 8.84031 10.0151 8.9253 9.8111 9.05887V7.92824C9.8111 7.63574 9.7211 7.34793 9.55704 7.10605C9.32886 6.77016 9.19584 6.37879 9.17207 5.97342C9.1483 5.56805 9.23468 5.16381 9.42204 4.80355C9.6801 4.30748 10.1171 3.92809 10.6445 3.7423C11.1846 3.55162 11.6439 3.18345 11.9477 2.69793C12.3377 2.07637 13.022 1.82324 13.8058 1.82324C14.1105 1.82324 14.4002 1.88887 14.6692 2.00043C15.0292 2.15699 15.4333 2.15699 15.7933 2.00043C16.0577 1.88887 16.3464 1.82324 16.652 1.82324C17.4452 1.82324 18.1399 2.09137 18.5242 2.72793C18.8165 3.20389 19.2683 3.56145 19.7983 3.73762Z" fill="url(#paint29_radial_98_840)"/>
</g>
<g filter="url(#filter5_i_98_840)">
<path d="M18.7407 7.18662C18.5552 7.01288 18.3346 6.88086 18.0939 6.79943C17.8079 6.70849 17.4498 6.68506 16.9529 6.74506C16.9189 6.74924 16.886 6.76009 16.8562 6.77699C16.8263 6.79388 16.8001 6.81649 16.779 6.84352C16.7579 6.87055 16.7423 6.90147 16.7331 6.93452C16.724 6.96758 16.7214 7.00211 16.7256 7.03615C16.7298 7.07019 16.7406 7.10307 16.7575 7.13292C16.7744 7.16277 16.797 7.189 16.824 7.21011C16.8511 7.23122 16.882 7.2468 16.9151 7.25596C16.9481 7.26512 16.9826 7.26768 17.0167 7.26349C17.4695 7.20724 17.747 7.23724 17.9373 7.29724C18.1248 7.35537 18.2504 7.45099 18.3986 7.57943C18.4508 7.62493 18.5189 7.64783 18.588 7.64308C18.6571 7.63833 18.7215 7.60633 18.767 7.55412C18.8125 7.5019 18.8354 7.43375 18.8306 7.36466C18.8259 7.29556 18.7939 7.23118 18.7417 7.18568" fill="#C05029"/>
</g>
<g filter="url(#filter6_i_98_840)">
<path d="M12.0169 7.08315C12.5112 6.79532 13.0859 6.67681 13.6538 6.74565C13.7224 6.7541 13.7849 6.78947 13.8274 6.84397C13.8699 6.89847 13.8891 6.96765 13.8806 7.03627C13.8722 7.1049 13.8368 7.16735 13.7823 7.2099C13.7278 7.25245 13.6586 7.2716 13.59 7.26315C13.1374 7.20782 12.6791 7.30198 12.285 7.53127C12.2553 7.54843 12.2265 7.56721 12.1988 7.58752L12.196 7.5894C12.1409 7.62627 12.0739 7.64088 12.0085 7.63029C11.9432 7.61969 11.8842 7.58468 11.8436 7.53231C11.8031 7.47995 11.7839 7.41414 11.7899 7.34818C11.796 7.28221 11.8268 7.22099 11.8763 7.1769L12.0169 7.08315Z" fill="#C05029"/>
</g>
<g filter="url(#filter7_f_98_840)">
<path d="M15.4463 4.70362L15.3844 4.57518C15.3378 4.45943 15.2579 4.36017 15.1547 4.29004C15.0515 4.21992 14.9298 4.18211 14.805 4.18143H13.6069C11.8688 4.18143 10.4616 5.6055 10.4616 7.36237V7.62112C10.141 7.37737 9.73877 6.86456 9.73877 6.033C9.73877 5.02331 10.4747 4.51425 10.9435 4.188C11.0766 4.09612 11.1872 4.01925 11.2547 3.94987L11.3485 3.85143C11.6775 3.50175 12.2644 2.88018 13.2881 2.60831C13.7527 2.49092 14.2314 2.43885 14.7103 2.45362C15.1538 2.46393 15.466 2.84737 15.466 3.28987V4.69143L15.4463 4.70362Z" fill="url(#paint30_radial_98_840)"/>
<path d="M15.4463 4.70362L15.3844 4.57518C15.3378 4.45943 15.2579 4.36017 15.1547 4.29004C15.0515 4.21992 14.9298 4.18211 14.805 4.18143H13.6069C11.8688 4.18143 10.4616 5.6055 10.4616 7.36237V7.62112C10.141 7.37737 9.73877 6.86456 9.73877 6.033C9.73877 5.02331 10.4747 4.51425 10.9435 4.188C11.0766 4.09612 11.1872 4.01925 11.2547 3.94987L11.3485 3.85143C11.6775 3.50175 12.2644 2.88018 13.2881 2.60831C13.7527 2.49092 14.2314 2.43885 14.7103 2.45362C15.1538 2.46393 15.466 2.84737 15.466 3.28987V4.69143L15.4463 4.70362Z" fill="url(#paint31_radial_98_840)"/>
</g>
<g filter="url(#filter8_f_98_840)">
<path d="M20.1348 7.87962L20.1076 7.28525C20.0982 6.56619 19.5038 5.97275 18.7848 5.94275H17.4657C17.0567 5.94292 16.6552 5.83298 16.3034 5.62447C15.9515 5.41597 15.6623 5.11658 15.466 4.75775C15.466 4.75775 15.4098 4.6265 15.3516 4.40431C15.1126 3.49494 15.9816 2.79837 16.9051 2.97744C17.8238 3.15556 18.8701 3.464 19.6435 3.96837C21.286 5.03994 20.9991 6.97025 20.1348 7.87962Z" fill="url(#paint32_radial_98_840)"/>
<path d="M20.1348 7.87962L20.1076 7.28525C20.0982 6.56619 19.5038 5.97275 18.7848 5.94275H17.4657C17.0567 5.94292 16.6552 5.83298 16.3034 5.62447C15.9515 5.41597 15.6623 5.11658 15.466 4.75775C15.466 4.75775 15.4098 4.6265 15.3516 4.40431C15.1126 3.49494 15.9816 2.79837 16.9051 2.97744C17.8238 3.15556 18.8701 3.464 19.6435 3.96837C21.286 5.03994 20.9991 6.97025 20.1348 7.87962Z" fill="url(#paint33_radial_98_840)"/>
<path d="M20.1348 7.87962L20.1076 7.28525C20.0982 6.56619 19.5038 5.97275 18.7848 5.94275H17.4657C17.0567 5.94292 16.6552 5.83298 16.3034 5.62447C15.9515 5.41597 15.6623 5.11658 15.466 4.75775C15.466 4.75775 15.4098 4.6265 15.3516 4.40431C15.1126 3.49494 15.9816 2.79837 16.9051 2.97744C17.8238 3.15556 18.8701 3.464 19.6435 3.96837C21.286 5.03994 20.9991 6.97025 20.1348 7.87962Z" fill="url(#paint34_radial_98_840)"/>
<path d="M20.1348 7.87962L20.1076 7.28525C20.0982 6.56619 19.5038 5.97275 18.7848 5.94275H17.4657C17.0567 5.94292 16.6552 5.83298 16.3034 5.62447C15.9515 5.41597 15.6623 5.11658 15.466 4.75775C15.466 4.75775 15.4098 4.6265 15.3516 4.40431C15.1126 3.49494 15.9816 2.79837 16.9051 2.97744C17.8238 3.15556 18.8701 3.464 19.6435 3.96837C21.286 5.03994 20.9991 6.97025 20.1348 7.87962Z" fill="url(#paint35_radial_98_840)"/>
<path d="M20.1348 7.87962L20.1076 7.28525C20.0982 6.56619 19.5038 5.97275 18.7848 5.94275H17.4657C17.0567 5.94292 16.6552 5.83298 16.3034 5.62447C15.9515 5.41597 15.6623 5.11658 15.466 4.75775C15.466 4.75775 15.4098 4.6265 15.3516 4.40431C15.1126 3.49494 15.9816 2.79837 16.9051 2.97744C17.8238 3.15556 18.8701 3.464 19.6435 3.96837C21.286 5.03994 20.9991 6.97025 20.1348 7.87962Z" fill="url(#paint36_radial_98_840)"/>
</g>
<path d="M17.4779 8.42383C18.0929 8.42383 18.6123 8.84758 18.7529 9.42039C18.7625 9.45851 18.7632 9.49832 18.755 9.53677C18.7469 9.57522 18.73 9.61129 18.7058 9.64223C18.6815 9.67317 18.6505 9.69815 18.6151 9.71527C18.5798 9.73239 18.5409 9.7412 18.5016 9.74102H16.4016C16.3697 9.7413 16.3382 9.73451 16.3092 9.72112C16.2803 9.70774 16.2547 9.6881 16.2342 9.66362C16.2138 9.63914 16.199 9.61043 16.191 9.57955C16.183 9.54868 16.1819 9.51641 16.1879 9.48508C16.2462 9.18592 16.4069 8.91639 16.6423 8.72274C16.8776 8.5291 17.1731 8.42342 17.4779 8.42383Z" fill="white"/>
<path d="M17.2837 8.67969C17.4128 8.67988 17.5401 8.70982 17.6557 8.76718C17.7713 8.82454 17.8722 8.90777 17.9504 9.01041C18.0287 9.11306 18.0823 9.23236 18.1069 9.35905C18.1316 9.48575 18.1268 9.61642 18.0928 9.74094H16.4709C16.4376 9.61616 16.4334 9.48541 16.4586 9.35875C16.4838 9.2321 16.5378 9.11292 16.6163 9.01039C16.6948 8.90787 16.7958 8.82474 16.9115 8.7674C17.0272 8.71007 17.1546 8.68006 17.2837 8.67969Z" fill="url(#paint37_radial_98_840)"/>
<path d="M16.8028 9.51908C16.8025 9.45589 16.8148 9.39329 16.8389 9.33488C16.863 9.27647 16.8984 9.22341 16.9431 9.17878C16.9879 9.13414 17.041 9.09882 17.0995 9.07484C17.1579 9.05086 17.2205 9.0387 17.2837 9.03908C17.3664 9.03844 17.4479 9.05926 17.5201 9.09951C17.5924 9.13975 17.6529 9.19805 17.6959 9.26871C17.7389 9.33936 17.7628 9.41996 17.7653 9.50262C17.7678 9.58528 17.7489 9.66719 17.7103 9.74033H16.86C16.8214 9.67306 16.8016 9.59663 16.8028 9.51908Z" fill="black"/>
<g filter="url(#filter9_f_98_840)">
<path d="M17.222 8.8575C17.281 8.93812 17.1563 9.03562 17.0138 9.14156C16.8723 9.2475 16.7663 9.3225 16.7063 9.24187C16.6473 9.16218 16.7138 9.01125 16.8563 8.90531C16.997 8.79937 17.161 8.77781 17.222 8.85843" fill="#C7A7A3"/>
<path d="M17.222 8.8575C17.281 8.93812 17.1563 9.03562 17.0138 9.14156C16.8723 9.2475 16.7663 9.3225 16.7063 9.24187C16.6473 9.16218 16.7138 9.01125 16.8563 8.90531C16.997 8.79937 17.161 8.77781 17.222 8.85843" fill="url(#paint38_radial_98_840)"/>
</g>
<g filter="url(#filter10_f_98_840)">
<path d="M18.0311 9.40863C18.0063 9.24432 17.9302 9.09205 17.8136 8.97363L17.5698 9.24176L17.6795 9.45551L18.0311 9.40863Z" fill="url(#paint39_linear_98_840)"/>
</g>
<path d="M12.9769 8.42383C12.3619 8.42383 11.8425 8.84758 11.7019 9.42039C11.6923 9.45851 11.6916 9.49832 11.6997 9.53677C11.7079 9.57522 11.7247 9.61129 11.749 9.64223C11.7732 9.67316 11.8042 9.69815 11.8396 9.71527C11.875 9.73239 11.9138 9.7412 11.9531 9.74102H14.0531C14.1872 9.74102 14.2931 9.61914 14.2669 9.48508C14.2069 9.18672 14.0458 8.91821 13.8107 8.72487C13.5757 8.53152 13.2812 8.42519 12.9769 8.42383Z" fill="white"/>
<path d="M13.1719 8.67871C13.0428 8.67876 12.9154 8.7086 12.7996 8.76589C12.6839 8.82319 12.5829 8.9064 12.5045 9.00907C12.4262 9.11173 12.3726 9.23108 12.3478 9.35785C12.3231 9.48461 12.3279 9.61537 12.3619 9.73996H13.9838C14.0029 9.66771 14.0133 9.59343 14.0148 9.51871C14.0138 9.29558 13.9244 9.08194 13.7663 8.92451C13.6082 8.76709 13.3941 8.67871 13.171 8.67871" fill="url(#paint40_radial_98_840)"/>
<path d="M13.6519 9.51909C13.6522 9.4559 13.6399 9.3933 13.6158 9.33489C13.5917 9.27648 13.5563 9.22342 13.5116 9.17879C13.4669 9.13415 13.4137 9.09882 13.3553 9.07485C13.2968 9.05087 13.2342 9.03871 13.171 9.03909C13.0882 9.03828 13.0067 9.05898 12.9343 9.09916C12.8619 9.13934 12.8012 9.19763 12.7581 9.26831C12.715 9.33899 12.691 9.41965 12.6885 9.50239C12.6859 9.58513 12.7049 9.66712 12.7435 9.74034H13.5948C13.6314 9.67235 13.6508 9.59634 13.651 9.51909" fill="black"/>
<g filter="url(#filter11_f_98_840)">
<path d="M13.9378 9.41934C13.9378 9.1484 13.7175 8.96746 13.6575 8.91309L13.3875 9.17559L13.5534 9.51496L13.9378 9.41934Z" fill="url(#paint41_linear_98_840)"/>
</g>
<g filter="url(#filter12_f_98_840)">
<path d="M13.0048 9.20235C13.1837 9.10757 13.2898 8.95731 13.2418 8.86672C13.1938 8.77613 13.0099 8.77952 12.831 8.87429C12.6521 8.96907 12.546 9.11934 12.594 9.20993C12.642 9.30052 12.8259 9.29712 13.0048 9.20235Z" fill="#C7A7A3" fill-opacity="0.9"/>
<path d="M13.0048 9.20235C13.1837 9.10757 13.2898 8.95731 13.2418 8.86672C13.1938 8.77613 13.0099 8.77952 12.831 8.87429C12.6521 8.96907 12.546 9.11934 12.594 9.20993C12.642 9.30052 12.8259 9.29712 13.0048 9.20235Z" fill="url(#paint42_radial_98_840)"/>
</g>
<path d="M19.8618 11.2537C19.9243 10.2525 19.9821 9.25125 20.0353 8.25C20.4003 8.31498 20.7288 8.51159 20.9587 8.80257C21.1885 9.09355 21.3036 9.45871 21.2822 9.82888C21.2608 10.1991 21.1045 10.5485 20.8427 10.8111C20.5809 11.0737 20.2319 11.2312 19.8618 11.2537Z" fill="url(#paint43_linear_98_840)"/>
<path d="M19.8618 11.2537C19.9243 10.2525 19.9821 9.25125 20.0353 8.25C20.4003 8.31498 20.7288 8.51159 20.9587 8.80257C21.1885 9.09355 21.3036 9.45871 21.2822 9.82888C21.2608 10.1991 21.1045 10.5485 20.8427 10.8111C20.5809 11.0737 20.2319 11.2312 19.8618 11.2537Z" fill="url(#paint44_radial_98_840)"/>
<path d="M19.8618 11.2537C19.9243 10.2525 19.9821 9.25125 20.0353 8.25C20.4003 8.31498 20.7288 8.51159 20.9587 8.80257C21.1885 9.09355 21.3036 9.45871 21.2822 9.82888C21.2608 10.1991 21.1045 10.5485 20.8427 10.8111C20.5809 11.0737 20.2319 11.2312 19.8618 11.2537Z" fill="url(#paint45_radial_98_840)"/>
<path d="M10.4701 8.24215C10.0982 8.29561 9.7594 8.48537 9.51954 8.77458C9.27967 9.06379 9.15583 9.43183 9.17207 9.80722C9.18831 10.1826 9.34347 10.5386 9.60742 10.806C9.87137 11.0734 10.2253 11.2332 10.6004 11.2543C10.536 10.251 10.4922 9.24638 10.4692 8.24121" fill="url(#paint46_linear_98_840)"/>
<path d="M10.4701 8.24215C10.0982 8.29561 9.7594 8.48537 9.51954 8.77458C9.27967 9.06379 9.15583 9.43183 9.17207 9.80722C9.18831 10.1826 9.34347 10.5386 9.60742 10.806C9.87137 11.0734 10.2253 11.2332 10.6004 11.2543C10.536 10.251 10.4922 9.24638 10.4692 8.24121" fill="url(#paint47_radial_98_840)"/>
<g filter="url(#filter13_f_98_840)">
<path d="M10.4852 8.86328C10.2803 8.91075 10.0986 9.02842 9.97147 9.19589C9.84435 9.36336 9.77987 9.57005 9.78922 9.78009C9.79858 9.99014 9.88118 10.1903 10.0227 10.3458C10.1642 10.5013 10.3557 10.6023 10.5639 10.6314C10.5305 10.0424 10.5043 9.45295 10.4852 8.86328Z" fill="#DD8224"/>
</g>
<g filter="url(#filter14_f_98_840)">
<path d="M19.8994 10.6402C19.9363 10.0427 19.9707 9.44551 20.0025 8.84863C20.2258 8.88054 20.429 8.99513 20.5718 9.16971C20.7146 9.34429 20.7867 9.56614 20.7737 9.79133C20.7608 10.0165 20.6637 10.2286 20.5018 10.3857C20.3399 10.5427 20.1249 10.6332 19.8994 10.6393" fill="#FFC837"/>
</g>
<g filter="url(#filter15_f_98_840)">
<path d="M12.0525 7.3472C12.2944 7.17377 12.8962 6.86814 13.6097 6.98814" stroke="#C96953" stroke-width="0.125" stroke-linecap="round"/>
</g>
<g filter="url(#filter16_f_98_840)">
<path d="M18.5813 7.30392C18.3394 7.13049 17.7366 6.8258 17.0232 6.94486" stroke="#C96953" stroke-width="0.125" stroke-linecap="round"/>
</g>
<path d="M23.4592 10.8305V2.52148H22.7092V10.8305H23.4592Z" fill="url(#paint48_linear_98_840)"/>
<path d="M23.4592 10.8305V2.52148H22.7092V10.8305H23.4592Z" fill="url(#paint49_radial_98_840)"/>
<path d="M9.42843 4.81141L10.6031 2.94297L19.7437 2.83984L21.0187 4.77391C16.6462 6.28328 11.3869 5.49859 9.42749 4.81047" fill="url(#paint50_radial_98_840)"/>
<path d="M22.7185 3.27148H7.74658C7.33408 3.27148 6.99658 2.93398 6.99658 2.52148C6.99658 2.10898 7.33408 1.77148 7.74658 1.77148H22.7091C23.1216 1.77148 23.4591 2.10898 23.4591 2.52148C23.4685 2.93398 23.131 3.27148 22.7185 3.27148Z" fill="url(#paint51_linear_98_840)"/>
<path d="M22.7185 3.27148H7.74658C7.33408 3.27148 6.99658 2.93398 6.99658 2.52148C6.99658 2.10898 7.33408 1.77148 7.74658 1.77148H22.7091C23.1216 1.77148 23.4591 2.10898 23.4591 2.52148C23.4685 2.93398 23.131 3.27148 22.7185 3.27148Z" fill="url(#paint52_radial_98_840)"/>
<path d="M22.7185 3.27148H7.74658C7.33408 3.27148 6.99658 2.93398 6.99658 2.52148C6.99658 2.10898 7.33408 1.77148 7.74658 1.77148H22.7091C23.1216 1.77148 23.4591 2.10898 23.4591 2.52148C23.4685 2.93398 23.131 3.27148 22.7185 3.27148Z" fill="url(#paint53_radial_98_840)"/>
<path d="M22.709 10.8086C22.5558 10.892 22.4347 11.024 22.3649 11.1839C22.2951 11.3437 22.2805 11.5223 22.3235 11.6913C22.3666 11.8604 22.4647 12.0103 22.6024 12.1174C22.7401 12.2244 22.9096 12.2826 23.084 12.2826C23.2584 12.2826 23.4279 12.2244 23.5656 12.1174C23.7033 12.0103 23.8015 11.8604 23.8445 11.6913C23.8875 11.5223 23.8729 11.3437 23.8031 11.1839C23.7333 11.024 23.6122 10.892 23.459 10.8086H22.709Z" fill="url(#paint54_radial_98_840)"/>
<path d="M22.709 10.8086C22.5558 10.892 22.4347 11.024 22.3649 11.1839C22.2951 11.3437 22.2805 11.5223 22.3235 11.6913C22.3666 11.8604 22.4647 12.0103 22.6024 12.1174C22.7401 12.2244 22.9096 12.2826 23.084 12.2826C23.2584 12.2826 23.4279 12.2244 23.5656 12.1174C23.7033 12.0103 23.8015 11.8604 23.8445 11.6913C23.8875 11.5223 23.8729 11.3437 23.8031 11.1839C23.7333 11.024 23.6122 10.892 23.459 10.8086H22.709Z" fill="url(#paint55_radial_98_840)"/>
<g filter="url(#filter17_f_98_840)">
<path d="M23.1807 3.36914V10.6516" stroke="url(#paint56_linear_98_840)" stroke-width="0.075"/>
</g>
<path d="M22.2846 12.646L21.7999 14.746C21.7857 14.8083 21.7858 14.873 21.8002 14.9352C21.8147 14.9974 21.843 15.0555 21.8832 15.1052C21.9234 15.1548 21.9743 15.1947 22.0321 15.2218C22.09 15.2489 22.1532 15.2625 22.2171 15.2616H23.9636C24.027 15.2606 24.0893 15.2454 24.146 15.217C24.2026 15.1886 24.2522 15.1478 24.2909 15.0976C24.3296 15.0474 24.3566 14.9892 24.3697 14.9272C24.3828 14.8652 24.3818 14.801 24.3667 14.7395L23.8586 12.6404C23.8337 12.5386 23.7753 12.4481 23.6929 12.3833C23.6105 12.3186 23.5087 12.2833 23.4039 12.2832H22.7411C22.6349 12.2831 22.5318 12.319 22.4487 12.385C22.3656 12.4511 22.3074 12.5435 22.2836 12.647" fill="url(#paint57_linear_98_840)"/>
<path d="M22.2846 12.646L21.7999 14.746C21.7857 14.8083 21.7858 14.873 21.8002 14.9352C21.8147 14.9974 21.843 15.0555 21.8832 15.1052C21.9234 15.1548 21.9743 15.1947 22.0321 15.2218C22.09 15.2489 22.1532 15.2625 22.2171 15.2616H23.9636C24.027 15.2606 24.0893 15.2454 24.146 15.217C24.2026 15.1886 24.2522 15.1478 24.2909 15.0976C24.3296 15.0474 24.3566 14.9892 24.3697 14.9272C24.3828 14.8652 24.3818 14.801 24.3667 14.7395L23.8586 12.6404C23.8337 12.5386 23.7753 12.4481 23.6929 12.3833C23.6105 12.3186 23.5087 12.2833 23.4039 12.2832H22.7411C22.6349 12.2831 22.5318 12.319 22.4487 12.385C22.3656 12.4511 22.3074 12.5435 22.2836 12.647" fill="url(#paint58_radial_98_840)"/>
<path d="M22.2846 12.646L21.7999 14.746C21.7857 14.8083 21.7858 14.873 21.8002 14.9352C21.8147 14.9974 21.843 15.0555 21.8832 15.1052C21.9234 15.1548 21.9743 15.1947 22.0321 15.2218C22.09 15.2489 22.1532 15.2625 22.2171 15.2616H23.9636C24.027 15.2606 24.0893 15.2454 24.146 15.217C24.2026 15.1886 24.2522 15.1478 24.2909 15.0976C24.3296 15.0474 24.3566 14.9892 24.3697 14.9272C24.3828 14.8652 24.3818 14.801 24.3667 14.7395L23.8586 12.6404C23.8337 12.5386 23.7753 12.4481 23.6929 12.3833C23.6105 12.3186 23.5087 12.2833 23.4039 12.2832H22.7411C22.6349 12.2831 22.5318 12.319 22.4487 12.385C22.3656 12.4511 22.3074 12.5435 22.2836 12.647" fill="url(#paint59_radial_98_840)"/>
<path d="M22.2846 12.646L21.7999 14.746C21.7857 14.8083 21.7858 14.873 21.8002 14.9352C21.8147 14.9974 21.843 15.0555 21.8832 15.1052C21.9234 15.1548 21.9743 15.1947 22.0321 15.2218C22.09 15.2489 22.1532 15.2625 22.2171 15.2616H23.9636C24.027 15.2606 24.0893 15.2454 24.146 15.217C24.2026 15.1886 24.2522 15.1478 24.2909 15.0976C24.3296 15.0474 24.3566 14.9892 24.3697 14.9272C24.3828 14.8652 24.3818 14.801 24.3667 14.7395L23.8586 12.6404C23.8337 12.5386 23.7753 12.4481 23.6929 12.3833C23.6105 12.3186 23.5087 12.2833 23.4039 12.2832H22.7411C22.6349 12.2831 22.5318 12.319 22.4487 12.385C22.3656 12.4511 22.3074 12.5435 22.2836 12.647" fill="url(#paint60_radial_98_840)"/>
<path d="M8.49381 28.0123V16.9639C7.38369 17.9308 6.4941 19.1247 5.88516 20.465C5.27622 21.8054 4.96213 23.2608 4.96412 24.7329V28.0142L8.49381 28.0123Z" fill="url(#paint61_radial_98_840)"/>
<path d="M8.49381 28.0123V16.9639C7.38369 17.9308 6.4941 19.1247 5.88516 20.465C5.27622 21.8054 4.96213 23.2608 4.96412 24.7329V28.0142L8.49381 28.0123Z" fill="url(#paint62_radial_98_840)"/>
<path d="M8.49381 28.0123V16.9639C7.38369 17.9308 6.4941 19.1247 5.88516 20.465C5.27622 21.8054 4.96213 23.2608 4.96412 24.7329V28.0142L8.49381 28.0123Z" fill="url(#paint63_linear_98_840)"/>
<path d="M22.05 28.0123V16.9639C23.1602 17.9308 24.0498 19.1247 24.6587 20.465C25.2676 21.8054 25.5817 23.2608 25.5797 24.7329V28.0142L22.05 28.0123Z" fill="url(#paint64_radial_98_840)"/>
<path d="M22.05 28.0123V16.9639C23.1602 17.9308 24.0498 19.1247 24.6587 20.465C25.2676 21.8054 25.5817 23.2608 25.5797 24.7329V28.0142L22.05 28.0123Z" fill="url(#paint65_radial_98_840)"/>
<g filter="url(#filter18_f_98_840)">
<path d="M11.2107 22.1781C11.2107 22.0019 11.356 21.8594 11.5351 21.8594C11.7141 21.8594 11.8585 22.0019 11.8585 22.1781V27.8903H11.2107V22.1781Z" fill="url(#paint66_linear_98_840)"/>
<path d="M14.9475 22.1781C14.9475 22.0019 15.0928 21.8594 15.2719 21.8594C15.4509 21.8594 15.5963 22.0019 15.5963 22.1781V27.8903H14.9475V22.1781Z" fill="url(#paint67_linear_98_840)"/>
<path d="M18.6843 22.1781C18.6843 22.0019 18.8296 21.8594 19.0087 21.8594C19.1878 21.8594 19.3331 22.0019 19.3331 22.1781V27.8903H18.6853L18.6843 22.1781Z" fill="url(#paint68_linear_98_840)"/>
</g>
<defs>
<filter id="filter0_ii_98_840" x="10.4617" y="4.18066" width="9.87158" height="11.7191" filterUnits="userSpaceOnUse" color-interpolation-filters="sRGB">
<feFlood flood-opacity="0" result="BackgroundImageFix"/>
<feBlend mode="normal" in="SourceGraphic" in2="BackgroundImageFix" result="shape"/>
<feColorMatrix in="SourceAlpha" type="matrix" values="0 0 0 0 0 0 0 0 0 0 0 0 0 0 0 0 0 0 127 0" result="hardAlpha"/>
<feOffset dx="0.25"/>
<feGaussianBlur stdDeviation="0.25"/>
<feComposite in2="hardAlpha" operator="arithmetic" k2="-1" k3="1"/>
<feColorMatrix type="matrix" values="0 0 0 0 0.823529 0 0 0 0 0.623529 0 0 0 0 0.313726 0 0 0 1 0"/>
<feBlend mode="normal" in2="shape" result="effect1_innerShadow_98_840"/>
<feColorMatrix in="SourceAlpha" type="matrix" values="0 0 0 0 0 0 0 0 0 0 0 0 0 0 0 0 0 0 127 0" result="hardAlpha"/>
<feOffset dy="0.1"/>
<feGaussianBlur stdDeviation="0.1875"/>
<feComposite in2="hardAlpha" operator="arithmetic" k2="-1" k3="1"/>
<feColorMatrix type="matrix" values="0 0 0 0 0.980392 0 0 0 0 0.54902 0 0 0 0 0.0941176 0 0 0 1 0"/>
<feBlend mode="normal" in2="effect1_innerShadow_98_840" result="effect2_innerShadow_98_840"/>
</filter>
<filter id="filter1_f_98_840" x="13.6489" y="8.71484" width="2.76685" height="3.73047" filterUnits="userSpaceOnUse" color-interpolation-filters="sRGB">
<feFlood flood-opacity="0" result="BackgroundImageFix"/>
<feBlend mode="normal" in="SourceGraphic" in2="BackgroundImageFix" result="shape"/>
<feGaussianBlur stdDeviation="0.25" result="effect1_foregroundBlur_98_840"/>
</filter>
<filter id="filter2_f_98_840" x="14.294" y="8.98125" width="1.86685" height="2.82949" filterUnits="userSpaceOnUse" color-interpolation-filters="sRGB">
<feFlood flood-opacity="0" result="BackgroundImageFix"/>
<feBlend mode="normal" in="SourceGraphic" in2="BackgroundImageFix" result="shape"/>
<feGaussianBlur stdDeviation="0.025" result="effect1_foregroundBlur_98_840"/>
</filter>
<filter id="filter3_f_98_840" x="13.555" y="12.2352" width="3.34512" height="1.32461" filterUnits="userSpaceOnUse" color-interpolation-filters="sRGB">
<feFlood flood-opacity="0" result="BackgroundImageFix"/>
<feBlend mode="normal" in="SourceGraphic" in2="BackgroundImageFix" result="shape"/>
<feGaussianBlur stdDeviation="0.025" result="effect1_foregroundBlur_98_840"/>
</filter>
<filter id="filter4_ii_98_840" x="9.16821" y="1.57324" width="12.1194" height="7.48535" filterUnits="userSpaceOnUse" color-interpolation-filters="sRGB">
<feFlood flood-opacity="0" result="BackgroundImageFix"/>
<feBlend mode="normal" in="SourceGraphic" in2="BackgroundImageFix" result="shape"/>
<feColorMatrix in="SourceAlpha" type="matrix" values="0 0 0 0 0 0 0 0 0 0 0 0 0 0 0 0 0 0 127 0" result="hardAlpha"/>
<feOffset dy="-0.25"/>
<feGaussianBlur stdDeviation="0.3125"/>
<feComposite in2="hardAlpha" operator="arithmetic" k2="-1" k3="1"/>
<feColorMatrix type="matrix" values="0 0 0 0 0.945098 0 0 0 0 0.509804 0 0 0 0 0.0627451 0 0 0 1 0"/>
<feBlend mode="normal" in2="shape" result="effect1_innerShadow_98_840"/>
<feColorMatrix in="SourceAlpha" type="matrix" values="0 0 0 0 0 0 0 0 0 0 0 0 0 0 0 0 0 0 127 0" result="hardAlpha"/>
<feOffset dy="-0.1"/>
<feGaussianBlur stdDeviation="0.1"/>
<feComposite in2="hardAlpha" operator="arithmetic" k2="-1" k3="1"/>
<feColorMatrix type="matrix" values="0 0 0 0 0.862745 0 0 0 0 0.486275 0 0 0 0 0.0470588 0 0 0 1 0"/>
<feBlend mode="normal" in2="effect1_innerShadow_98_840" result="effect2_innerShadow_98_840"/>
</filter>
<filter id="filter5_i_98_840" x="16.7236" y="6.61191" width="2.15767" height="1.03164" filterUnits="userSpaceOnUse" color-interpolation-filters="sRGB">
<feFlood flood-opacity="0" result="BackgroundImageFix"/>
<feBlend mode="normal" in="SourceGraphic" in2="BackgroundImageFix" result="shape"/>
<feColorMatrix in="SourceAlpha" type="matrix" values="0 0 0 0 0 0 0 0 0 0 0 0 0 0 0 0 0 0 127 0" result="hardAlpha"/>
<feOffset dx="0.05" dy="-0.1"/>
<feGaussianBlur stdDeviation="0.0625"/>
<feComposite in2="hardAlpha" operator="arithmetic" k2="-1" k3="1"/>
<feColorMatrix type="matrix" values="0 0 0 0 0.603922 0 0 0 0 0.243137 0 0 0 0 0.152941 0 0 0 1 0"/>
<feBlend mode="normal" in2="shape" result="effect1_innerShadow_98_840"/>
</filter>
<filter id="filter6_i_98_840" x="11.7888" y="6.62656" width="2.14375" height="1.00723" filterUnits="userSpaceOnUse" color-interpolation-filters="sRGB">
<feFlood flood-opacity="0" result="BackgroundImageFix"/>
<feBlend mode="normal" in="SourceGraphic" in2="BackgroundImageFix" result="shape"/>
<feColorMatrix in="SourceAlpha" type="matrix" values="0 0 0 0 0 0 0 0 0 0 0 0 0 0 0 0 0 0 127 0" result="hardAlpha"/>
<feOffset dx="0.05" dy="-0.1"/>
<feGaussianBlur stdDeviation="0.0625"/>
<feComposite in2="hardAlpha" operator="arithmetic" k2="-1" k3="1"/>
<feColorMatrix type="matrix" values="0 0 0 0 0.603922 0 0 0 0 0.243137 0 0 0 0 0.152941 0 0 0 1 0"/>
<feBlend mode="normal" in2="shape" result="effect1_innerShadow_98_840"/>
</filter>
<filter id="filter7_f_98_840" x="9.61377" y="2.32617" width="5.97729" height="5.41992" filterUnits="userSpaceOnUse" color-interpolation-filters="sRGB">
<feFlood flood-opacity="0" result="BackgroundImageFix"/>
<feBlend mode="normal" in="SourceGraphic" in2="BackgroundImageFix" result="shape"/>
<feGaussianBlur stdDeviation="0.0625" result="effect1_foregroundBlur_98_840"/>
</filter>
<filter id="filter8_f_98_840" x="15.1865" y="2.82422" width="5.76929" height="5.18066" filterUnits="userSpaceOnUse" color-interpolation-filters="sRGB">
<feFlood flood-opacity="0" result="BackgroundImageFix"/>
<feBlend mode="normal" in="SourceGraphic" in2="BackgroundImageFix" result="shape"/>
<feGaussianBlur stdDeviation="0.0625" result="effect1_foregroundBlur_98_840"/>
</filter>
<filter id="filter9_f_98_840" x="16.6348" y="8.75957" width="0.652246" height="0.56582" filterUnits="userSpaceOnUse" color-interpolation-filters="sRGB">
<feFlood flood-opacity="0" result="BackgroundImageFix"/>
<feBlend mode="normal" in="SourceGraphic" in2="BackgroundImageFix" result="shape"/>
<feGaussianBlur stdDeviation="0.025" result="effect1_foregroundBlur_98_840"/>
</filter>
<filter id="filter10_f_98_840" x="17.4698" y="8.87363" width="0.661182" height="0.681445" filterUnits="userSpaceOnUse" color-interpolation-filters="sRGB">
<feFlood flood-opacity="0" result="BackgroundImageFix"/>
<feBlend mode="normal" in="SourceGraphic" in2="BackgroundImageFix" result="shape"/>
<feGaussianBlur stdDeviation="0.05" result="effect1_foregroundBlur_98_840"/>
</filter>
<filter id="filter11_f_98_840" x="13.2875" y="8.81309" width="0.750293" height="0.801563" filterUnits="userSpaceOnUse" color-interpolation-filters="sRGB">
<feFlood flood-opacity="0" result="BackgroundImageFix"/>
<feBlend mode="normal" in="SourceGraphic" in2="BackgroundImageFix" result="shape"/>
<feGaussianBlur stdDeviation="0.05" result="effect1_foregroundBlur_98_840"/>
</filter>
<filter id="filter12_f_98_840" x="12.5325" y="8.75078" width="0.770898" height="0.574609" filterUnits="userSpaceOnUse" color-interpolation-filters="sRGB">
<feFlood flood-opacity="0" result="BackgroundImageFix"/>
<feBlend mode="normal" in="SourceGraphic" in2="BackgroundImageFix" result="shape"/>
<feGaussianBlur stdDeviation="0.025" result="effect1_foregroundBlur_98_840"/>
</filter>
<filter id="filter13_f_98_840" x="9.66333" y="8.73828" width="1.02563" height="2.01855" filterUnits="userSpaceOnUse" color-interpolation-filters="sRGB">
<feFlood flood-opacity="0" result="BackgroundImageFix"/>
<feBlend mode="normal" in="SourceGraphic" in2="BackgroundImageFix" result="shape"/>
<feGaussianBlur stdDeviation="0.0625" result="effect1_foregroundBlur_98_840"/>
</filter>
<filter id="filter14_f_98_840" x="19.7744" y="8.72363" width="1.12573" height="2.04199" filterUnits="userSpaceOnUse" color-interpolation-filters="sRGB">
<feFlood flood-opacity="0" result="BackgroundImageFix"/>
<feBlend mode="normal" in="SourceGraphic" in2="BackgroundImageFix" result="shape"/>
<feGaussianBlur stdDeviation="0.0625" result="effect1_foregroundBlur_98_840"/>
</filter>
<filter id="filter15_f_98_840" x="11.865" y="6.77344" width="1.93213" height="0.761719" filterUnits="userSpaceOnUse" color-interpolation-filters="sRGB">
<feFlood flood-opacity="0" result="BackgroundImageFix"/>
<feBlend mode="normal" in="SourceGraphic" in2="BackgroundImageFix" result="shape"/>
<feGaussianBlur stdDeviation="0.0625" result="effect1_foregroundBlur_98_840"/>
</filter>
<filter id="filter16_f_98_840" x="16.8357" y="6.73047" width="1.93311" height="0.760742" filterUnits="userSpaceOnUse" color-interpolation-filters="sRGB">
<feFlood flood-opacity="0" result="BackgroundImageFix"/>
<feBlend mode="normal" in="SourceGraphic" in2="BackgroundImageFix" result="shape"/>
<feGaussianBlur stdDeviation="0.0625" result="effect1_foregroundBlur_98_840"/>
</filter>
<filter id="filter17_f_98_840" x="23.0181" y="3.24414" width="0.325195" height="7.53223" filterUnits="userSpaceOnUse" color-interpolation-filters="sRGB">
<feFlood flood-opacity="0" result="BackgroundImageFix"/>
<feBlend mode="normal" in="SourceGraphic" in2="BackgroundImageFix" result="shape"/>
<feGaussianBlur stdDeviation="0.0625" result="effect1_foregroundBlur_98_840"/>
</filter>
<filter id="filter18_f_98_840" x="11.1357" y="21.7844" width="8.27231" height="6.18125" filterUnits="userSpaceOnUse" color-interpolation-filters="sRGB">
<feFlood flood-opacity="0" result="BackgroundImageFix"/>
<feBlend mode="normal" in="SourceGraphic" in2="BackgroundImageFix" result="shape"/>
<feGaussianBlur stdDeviation="0.0375" result="effect1_foregroundBlur_98_840"/>
</filter>
<radialGradient id="paint0_radial_98_840" cx="0" cy="0" r="1" gradientUnits="userSpaceOnUse" gradientTransform="translate(22.1175 21.5617) rotate(90) scale(10.1953 3.42773)">
<stop stop-color="#70647F"/>
<stop offset="1" stop-color="#70647F" stop-opacity="0"/>
</radialGradient>
<radialGradient id="paint1_radial_98_840" cx="0" cy="0" r="1" gradientUnits="userSpaceOnUse" gradientTransform="translate(8.43567 20.0092) scale(1.23047 6.62109)">
<stop stop-color="#5D516A"/>
<stop offset="1" stop-color="#5D516A" stop-opacity="0"/>
</radialGradient>
<radialGradient id="paint2_radial_98_840" cx="0" cy="0" r="1" gradientUnits="userSpaceOnUse" gradientTransform="translate(15.2794 19.906) rotate(-90) scale(4.42383 12.7994)">
<stop stop-color="#47404D"/>
<stop offset="1" stop-color="#3B2D3A"/>
</radialGradient>
<radialGradient id="paint3_radial_98_840" cx="0" cy="0" r="1" gradientUnits="userSpaceOnUse" gradientTransform="translate(15.2719 15.7313) rotate(90) scale(5.56641 7.07067)">
<stop offset="0.932" stop-color="#342542" stop-opacity="0"/>
<stop offset="0.995" stop-color="#342542"/>
</radialGradient>
<radialGradient id="paint4_radial_98_840" cx="0" cy="0" r="1" gradientUnits="userSpaceOnUse" gradientTransform="translate(14.8809 14.4723) rotate(145.631) scale(6.68166 9.21183)">
<stop offset="0.928" stop-color="#6A656F" stop-opacity="0"/>
<stop offset="1" stop-color="#6A656F"/>
</radialGradient>
<radialGradient id="paint5_radial_98_840" cx="0" cy="0" r="1" gradientUnits="userSpaceOnUse" gradientTransform="translate(14.6466 14.252) rotate(34.266) scale(7.67492 10.5812)">
<stop offset="0.933" stop-color="#6A656F" stop-opacity="0"/>
<stop offset="1" stop-color="#615B67"/>
</radialGradient>
<radialGradient id="paint6_radial_98_840" cx="0" cy="0" r="1" gradientUnits="userSpaceOnUse" gradientTransform="translate(15.2719 22.0304) rotate(-90) scale(9.43359 9.98006)">
<stop offset="0.506" stop-color="#57525D" stop-opacity="0"/>
<stop offset="1" stop-color="#57525D"/>
</radialGradient>
<radialGradient id="paint7_radial_98_840" cx="0" cy="0" r="1" gradientUnits="userSpaceOnUse" gradientTransform="translate(15.2719 14.252) rotate(90) scale(3.61816 4.72692)">
<stop offset="0.316" stop-color="#361E27"/>
<stop offset="1" stop-color="#361E27" stop-opacity="0"/>
</radialGradient>
<radialGradient id="paint8_radial_98_840" cx="0" cy="0" r="1" gradientUnits="userSpaceOnUse" gradientTransform="translate(20.4506 10.877) rotate(103.169) scale(3.60349 4.28066)">
<stop offset="0.043" stop-color="#FFC135"/>
<stop offset="1" stop-color="#E26839"/>
</radialGradient>
<radialGradient id="paint9_radial_98_840" cx="0" cy="0" r="1" gradientUnits="userSpaceOnUse" gradientTransform="translate(19.7484 11.1291) rotate(53.9003) scale(0.468534 0.398033)">
<stop stop-color="#E18C2A"/>
<stop offset="1" stop-color="#E18C2A" stop-opacity="0"/>
</radialGradient>
<radialGradient id="paint10_radial_98_840" cx="0" cy="0" r="1" gradientUnits="userSpaceOnUse" gradientTransform="translate(10.0051 10.9866) rotate(71.2339) scale(3.89972 1.7726)">
<stop stop-color="#D57A26"/>
<stop offset="1" stop-color="#D06A3C"/>
</radialGradient>
<radialGradient id="paint11_radial_98_840" cx="0" cy="0" r="1" gradientUnits="userSpaceOnUse" gradientTransform="translate(10.6276 10.9801) rotate(72.2899) scale(0.985263 0.864281)">
<stop offset="0.263" stop-color="#BE691E"/>
<stop offset="0.977" stop-color="#BE691E" stop-opacity="0"/>
</radialGradient>
<radialGradient id="paint12_radial_98_840" cx="0" cy="0" r="1" gradientUnits="userSpaceOnUse" gradientTransform="translate(16.5808 17.1242) rotate(-135.444) scale(1.33623 2.82448)">
<stop stop-color="#D89D21"/>
<stop offset="1" stop-color="#CF7B39"/>
</radialGradient>
<radialGradient id="paint13_radial_98_840" cx="0" cy="0" r="1" gradientUnits="userSpaceOnUse" gradientTransform="translate(17.8707 9.99129) rotate(180) scale(4.92157 8.7062)">
<stop stop-color="#FFE846"/>
<stop offset="1" stop-color="#F5A129"/>
</radialGradient>
<radialGradient id="paint14_radial_98_840" cx="0" cy="0" r="1" gradientUnits="userSpaceOnUse" gradientTransform="translate(15.7306 7.61733) rotate(94.715) scale(8.55434 9.80447)">
<stop offset="0.623" stop-color="#FBA036" stop-opacity="0"/>
<stop offset="0.979" stop-color="#C56B42"/>
</radialGradient>
<radialGradient id="paint15_radial_98_840" cx="0" cy="0" r="1" gradientUnits="userSpaceOnUse" gradientTransform="translate(20.0814 9.77379) rotate(93.774) scale(5.75692 2.11648)">
<stop offset="0.39" stop-color="#FFD930"/>
<stop offset="1" stop-color="#FFD930" stop-opacity="0"/>
</radialGradient>
<radialGradient id="paint16_radial_98_840" cx="0" cy="0" r="1" gradientUnits="userSpaceOnUse" gradientTransform="translate(13.2592 8.87941) rotate(-90) scale(1.33103 1.60249)">
<stop offset="0.276" stop-color="#F59632"/>
<stop offset="1" stop-color="#F59632" stop-opacity="0"/>
</radialGradient>
<radialGradient id="paint17_radial_98_840" cx="0" cy="0" r="1" gradientUnits="userSpaceOnUse" gradientTransform="translate(17.5707 8.49223) rotate(-90) scale(1.4453 1.8746)">
<stop offset="0.178" stop-color="#FFBE3A"/>
<stop offset="1" stop-color="#FFBE3A" stop-opacity="0"/>
</radialGradient>
<radialGradient id="paint18_radial_98_840" cx="0" cy="0" r="1" gradientUnits="userSpaceOnUse" gradientTransform="translate(14.6485 4.18066) rotate(90) scale(2.32723 5.94988)">
<stop offset="0.634" stop-color="#E28222"/>
<stop offset="1" stop-color="#E28222" stop-opacity="0"/>
</radialGradient>
<linearGradient id="paint19_linear_98_840" x1="15.228" y1="10.771" x2="16.0324" y2="10.771" gradientUnits="userSpaceOnUse">
<stop stop-color="#FFC92F"/>
<stop offset="1" stop-color="#FFEA47"/>
</linearGradient>
<linearGradient id="paint20_linear_98_840" x1="14.2183" y1="10.6248" x2="15.2289" y2="10.681" gradientUnits="userSpaceOnUse">
<stop stop-color="#F49F22"/>
<stop offset="1" stop-color="#F49F22" stop-opacity="0"/>
</linearGradient>
<linearGradient id="paint21_linear_98_840" x1="15.228" y1="11.146" x2="15.228" y2="11.9485" gradientUnits="userSpaceOnUse">
<stop stop-color="#E88830" stop-opacity="0"/>
<stop offset="0.845" stop-color="#E88830"/>
</linearGradient>
<linearGradient id="paint22_linear_98_840" x1="15.228" y1="9.03102" x2="15.228" y2="9.4257" gradientUnits="userSpaceOnUse">
<stop stop-color="#FAC137"/>
<stop offset="1" stop-color="#FAC137" stop-opacity="0"/>
</linearGradient>
<radialGradient id="paint23_radial_98_840" cx="0" cy="0" r="1" gradientUnits="userSpaceOnUse" gradientTransform="translate(14.1676 13.0879) rotate(-60.732) scale(0.668494 1.94532)">
<stop stop-color="#FFB534"/>
<stop offset="1" stop-color="#FFB534" stop-opacity="0"/>
</radialGradient>
<radialGradient id="paint24_radial_98_840" cx="0" cy="0" r="1" gradientUnits="userSpaceOnUse" gradientTransform="translate(15.2279 13.3233) rotate(-90) scale(0.678506 2.72982)">
<stop stop-color="#89014E"/>
<stop offset="1" stop-color="#87004D"/>
</radialGradient>
<linearGradient id="paint25_linear_98_840" x1="20.2774" y1="4.66012" x2="10.7467" y2="4.66012" gradientUnits="userSpaceOnUse">
<stop stop-color="#FFE235"/>
<stop offset="1" stop-color="#D29935"/>
</linearGradient>
<radialGradient id="paint26_radial_98_840" cx="0" cy="0" r="1" gradientUnits="userSpaceOnUse" gradientTransform="translate(10.3052 8.50293) rotate(-90) scale(5.38391 9.53925)">
<stop offset="0.315" stop-color="#C98537"/>
<stop offset="1" stop-color="#C98537" stop-opacity="0"/>
</radialGradient>
<radialGradient id="paint27_radial_98_840" cx="0" cy="0" r="1" gradientUnits="userSpaceOnUse" gradientTransform="translate(19.8039 8.50293) rotate(-90) scale(3.41982 6.05926)">
<stop stop-color="#FFB52A"/>
<stop offset="1" stop-color="#FFB52A" stop-opacity="0"/>
</radialGradient>
<radialGradient id="paint28_radial_98_840" cx="0" cy="0" r="1" gradientUnits="userSpaceOnUse" gradientTransform="translate(19.0933 2.59293) rotate(-160.666) scale(4.09698 2.18191)">
<stop offset="0.347" stop-color="#FFE639"/>
<stop offset="1" stop-color="#FFE639" stop-opacity="0"/>
</radialGradient>
<radialGradient id="paint29_radial_98_840" cx="0" cy="0" r="1" gradientUnits="userSpaceOnUse" gradientTransform="translate(14.3758 1.09387) rotate(58.4649) scale(1.62918 3.7724)">
<stop offset="0.287" stop-color="#F3C130"/>
<stop offset="1" stop-color="#F3C130" stop-opacity="0"/>
</radialGradient>
<radialGradient id="paint30_radial_98_840" cx="0" cy="0" r="1" gradientUnits="userSpaceOnUse" gradientTransform="translate(15.4662 2.45065) rotate(160.16) scale(3.81003 1.06042)">
<stop stop-color="#FFDD30"/>
<stop offset="1" stop-color="#FFDC2B" stop-opacity="0"/>
</radialGradient>
<radialGradient id="paint31_radial_98_840" cx="0" cy="0" r="1" gradientUnits="userSpaceOnUse" gradientTransform="translate(10.1147 6.93202) rotate(-57.724) scale(5.67353 6.28569)">
<stop offset="0.093" stop-color="#D67227"/>
<stop offset="0.233" stop-color="#EF8A23"/>
<stop offset="1" stop-color="#EF8A23" stop-opacity="0"/>
</radialGradient>
<radialGradient id="paint32_radial_98_840" cx="0" cy="0" r="1" gradientUnits="userSpaceOnUse" gradientTransform="translate(18.6357 3.54369) rotate(13.3074) scale(3.27537 1.83181)">
<stop stop-color="#FFEB3B"/>
<stop offset="1" stop-color="#FFEB3B" stop-opacity="0"/>
</radialGradient>
<radialGradient id="paint33_radial_98_840" cx="0" cy="0" r="1" gradientUnits="userSpaceOnUse" gradientTransform="translate(20.0566 7.87867) rotate(-120.119) scale(4.03095 2.24803)">
<stop stop-color="#EB8F29"/>
<stop offset="1" stop-color="#EB8F29" stop-opacity="0"/>
</radialGradient>
<radialGradient id="paint34_radial_98_840" cx="0" cy="0" r="1" gradientUnits="userSpaceOnUse" gradientTransform="translate(19.472 7.5965) rotate(-120.695) scale(2.41106 1.72694)">
<stop offset="0.394" stop-color="#E48421"/>
<stop offset="1" stop-color="#E48421" stop-opacity="0"/>
</radialGradient>
<radialGradient id="paint35_radial_98_840" cx="0" cy="0" r="1" gradientUnits="userSpaceOnUse" gradientTransform="translate(19.741 3.43494) rotate(166.509) scale(4.64548 5.02194)">
<stop offset="0.735" stop-color="#F29415" stop-opacity="0"/>
<stop offset="1" stop-color="#F29415"/>
</radialGradient>
<radialGradient id="paint36_radial_98_840" cx="0" cy="0" r="1" gradientUnits="userSpaceOnUse" gradientTransform="translate(18.4782 3.31681) rotate(107.002) scale(0.377756 1.72707)">
<stop offset="0.461" stop-color="#FFCE3C"/>
<stop offset="1" stop-color="#FFCE3C" stop-opacity="0"/>
</radialGradient>
<radialGradient id="paint37_radial_98_840" cx="0" cy="0" r="1" gradientUnits="userSpaceOnUse" gradientTransform="translate(17.2818 9.12875) rotate(90) scale(0.763537 1.2145)">
<stop offset="0.802" stop-color="#925C51"/>
<stop offset="1" stop-color="#85534D"/>
</radialGradient>
<radialGradient id="paint38_radial_98_840" cx="0" cy="0" r="1" gradientUnits="userSpaceOnUse" gradientTransform="translate(17.0661 9.20771) rotate(-127.812) scale(0.355594 0.489563)">
<stop offset="0.766" stop-color="#FFE6E2" stop-opacity="0"/>
<stop offset="0.966" stop-color="#FFE6E2"/>
</radialGradient>
<linearGradient id="paint39_linear_98_840" x1="18.0133" y1="9.17895" x2="17.7189" y2="9.36082" gradientUnits="userSpaceOnUse">
<stop stop-color="#B4948D"/>
<stop offset="1" stop-color="#B4948D" stop-opacity="0"/>
</linearGradient>
<radialGradient id="paint40_radial_98_840" cx="0" cy="0" r="1" gradientUnits="userSpaceOnUse" gradientTransform="translate(13.1729 9.12777) rotate(90) scale(0.763584 1.21456)">
<stop offset="0.802" stop-color="#925C51"/>
<stop offset="1" stop-color="#85534D"/>
</radialGradient>
<linearGradient id="paint41_linear_98_840" x1="13.8721" y1="9.1784" x2="13.5778" y2="9.35934" gradientUnits="userSpaceOnUse">
<stop stop-color="#B4948D"/>
<stop offset="1" stop-color="#B4948D" stop-opacity="0"/>
</linearGradient>
<radialGradient id="paint42_radial_98_840" cx="0" cy="0" r="1" gradientUnits="userSpaceOnUse" gradientTransform="translate(13.0433 9.30655) rotate(-118.811) scale(0.464494 0.558347)">
<stop offset="0.766" stop-color="#FFE6E2" stop-opacity="0"/>
<stop offset="0.966" stop-color="#FFE6E2"/>
</radialGradient>
<linearGradient id="paint43_linear_98_840" x1="21.2868" y1="9.20531" x2="20.1515" y2="11.2537" gradientUnits="userSpaceOnUse">
<stop stop-color="#FFE343"/>
<stop offset="1" stop-color="#FFC136"/>
</linearGradient>
<radialGradient id="paint44_radial_98_840" cx="0" cy="0" r="1" gradientUnits="userSpaceOnUse" gradientTransform="translate(19.5749 9.1425) rotate(74.3476) scale(2.19318 2.09246)">
<stop offset="0.856" stop-color="#E1943D" stop-opacity="0"/>
<stop offset="1" stop-color="#E08F2E"/>
</radialGradient>
<radialGradient id="paint45_radial_98_840" cx="0" cy="0" r="1" gradientUnits="userSpaceOnUse" gradientTransform="translate(19.9153 9.65531) rotate(-53.9203) scale(1.25931 1.05555)">
<stop offset="0.664" stop-color="#FFBD22"/>
<stop offset="1" stop-color="#FFBD22" stop-opacity="0"/>
</radialGradient>
<linearGradient id="paint46_linear_98_840" x1="9.72104" y1="9.86777" x2="11.0935" y2="9.74777" gradientUnits="userSpaceOnUse">
<stop stop-color="#E39726"/>
<stop offset="1" stop-color="#D9851D"/>
</linearGradient>
<radialGradient id="paint47_radial_98_840" cx="0" cy="0" r="1" gradientUnits="userSpaceOnUse" gradientTransform="translate(10.2732 9.3003) rotate(101.248) scale(1.99267 1.95898)">
<stop offset="0.775" stop-color="#C77937" stop-opacity="0"/>
<stop offset="1" stop-color="#C77937"/>
</radialGradient>
<linearGradient id="paint48_linear_98_840" x1="22.4814" y1="8.27492" x2="23.5933" y2="8.27492" gradientUnits="userSpaceOnUse">
<stop stop-color="#33203C"/>
<stop offset="1" stop-color="#61546D"/>
</linearGradient>
<radialGradient id="paint49_radial_98_840" cx="0" cy="0" r="1" gradientUnits="userSpaceOnUse" gradientTransform="translate(23.3111 10.8305) rotate(-90) scale(2.18881 0.169041)">
<stop stop-color="#70635D"/>
<stop offset="1" stop-color="#70635D" stop-opacity="0"/>
</radialGradient>
<radialGradient id="paint50_radial_98_840" cx="0" cy="0" r="1" gradientUnits="userSpaceOnUse" gradientTransform="translate(17.8691 5.64043) rotate(-102.428) scale(3.67554 19.6091)">
<stop stop-color="#534D5B"/>
<stop offset="1" stop-color="#2B2135"/>
</radialGradient>
<linearGradient id="paint51_linear_98_840" x1="16.9322" y1="3.60336" x2="15.7303" y2="-0.498203" gradientUnits="userSpaceOnUse">
<stop stop-color="#3D294B"/>
<stop offset="1" stop-color="#433A4D"/>
</linearGradient>
<radialGradient id="paint52_radial_98_840" cx="0" cy="0" r="1" gradientUnits="userSpaceOnUse" gradientTransform="translate(20.6531 2.13805) rotate(90) scale(0.878906 11.8945)">
<stop stop-color="#696070"/>
<stop offset="0.867" stop-color="#696070" stop-opacity="0"/>
</radialGradient>
<radialGradient id="paint53_radial_98_840" cx="0" cy="0" r="1" gradientUnits="userSpaceOnUse" gradientTransform="translate(6.61877 2.72398) scale(7.26562 0.820312)">
<stop stop-color="#75707B"/>
<stop offset="0.935" stop-color="#75707B" stop-opacity="0"/>
</radialGradient>
<radialGradient id="paint54_radial_98_840" cx="0" cy="0" r="1" gradientUnits="userSpaceOnUse" gradientTransform="translate(23.5528 11.1789) rotate(126.437) scale(1.28262 1.14952)">
<stop stop-color="#686071"/>
<stop offset="0.661" stop-color="#402A4C"/>
</radialGradient>
<radialGradient id="paint55_radial_98_840" cx="0" cy="0" r="1" gradientUnits="userSpaceOnUse" gradientTransform="translate(22.2984 11.5455) rotate(-6.43651) scale(0.751324 0.881227)">
<stop offset="0.087" stop-color="#685352"/>
<stop offset="1" stop-color="#685352" stop-opacity="0"/>
</radialGradient>
<linearGradient id="paint56_linear_98_840" x1="-nan" y1="-nan" x2="-nan" y2="-nan" gradientUnits="userSpaceOnUse">
<stop stop-color="#60546C"/>
<stop offset="1" stop-color="#504B55"/>
</linearGradient>
<linearGradient id="paint57_linear_98_840" x1="24.1633" y1="13.7729" x2="21.9892" y2="13.7729" gradientUnits="userSpaceOnUse">
<stop stop-color="#F9B72A"/>
<stop offset="0.897" stop-color="#FAAC28"/>
</linearGradient>
<radialGradient id="paint58_radial_98_840" cx="0" cy="0" r="1" gradientUnits="userSpaceOnUse" gradientTransform="translate(24.2671 13.6593) rotate(169.33) scale(1.04561 5.21626)">
<stop offset="0.286" stop-color="#FFD93A"/>
<stop offset="1" stop-color="#FFD93A" stop-opacity="0"/>
</radialGradient>
<radialGradient id="paint59_radial_98_840" cx="0" cy="0" r="1" gradientUnits="userSpaceOnUse" gradientTransform="translate(23.0842 15.7313) rotate(-90) scale(1.23047 2.70978)">
<stop offset="0.422" stop-color="#A16739"/>
<stop offset="1" stop-color="#DB9820" stop-opacity="0"/>
</radialGradient>
<radialGradient id="paint60_radial_98_840" cx="0" cy="0" r="1" gradientUnits="userSpaceOnUse" gradientTransform="translate(23.0842 12.1791) rotate(90) scale(0.373538 1.29541)">
<stop offset="0.161" stop-color="#845D03"/>
<stop offset="1" stop-color="#EBA429" stop-opacity="0"/>
</radialGradient>
<radialGradient id="paint61_radial_98_840" cx="0" cy="0" r="1" gradientUnits="userSpaceOnUse" gradientTransform="translate(4.96412 28.0123) rotate(-90) scale(15.3501 4.09185)">
<stop stop-color="#766C83"/>
<stop offset="0.441" stop-color="#58496A"/>
<stop offset="1" stop-color="#4D4159"/>
</radialGradient>
<radialGradient id="paint62_radial_98_840" cx="0" cy="0" r="1" gradientUnits="userSpaceOnUse" gradientTransform="translate(8.49381 28.0123) rotate(-90) scale(9.86269 0.772622)">
<stop offset="0.286" stop-color="#4F445B"/>
<stop offset="1" stop-color="#4F445B" stop-opacity="0"/>
</radialGradient>
<linearGradient id="paint63_linear_98_840" x1="8.62975" y1="26.202" x2="8.23037" y2="26.202" gradientUnits="userSpaceOnUse">
<stop offset="0.444" stop-color="#433850"/>
<stop offset="1" stop-color="#433850" stop-opacity="0"/>
</linearGradient>
<radialGradient id="paint64_radial_98_840" cx="0" cy="0" r="1" gradientUnits="userSpaceOnUse" gradientTransform="translate(23.8144 28.0123) rotate(-100.465) scale(9.71766 2.72933)">
<stop stop-color="#736782"/>
<stop offset="1" stop-color="#5F5070"/>
</radialGradient>
<radialGradient id="paint65_radial_98_840" cx="0" cy="0" r="1" gradientUnits="userSpaceOnUse" gradientTransform="translate(21.8907 21.6017) rotate(87.413) scale(11.2928 0.659509)">
<stop offset="0.177" stop-color="#3F2A51"/>
<stop offset="1" stop-color="#3F2A51" stop-opacity="0"/>
</radialGradient>
<linearGradient id="paint66_linear_98_840" x1="15.2719" y1="27.8903" x2="15.2719" y2="21.8584" gradientUnits="userSpaceOnUse">
<stop stop-color="#3F3748"/>
<stop offset="1" stop-color="#3F3748" stop-opacity="0"/>
</linearGradient>
<linearGradient id="paint67_linear_98_840" x1="15.2719" y1="27.8903" x2="15.2719" y2="21.8584" gradientUnits="userSpaceOnUse">
<stop stop-color="#3F3748"/>
<stop offset="1" stop-color="#3F3748" stop-opacity="0"/>
</linearGradient>
<linearGradient id="paint68_linear_98_840" x1="15.2718" y1="27.8903" x2="15.2718" y2="21.8584" gradientUnits="userSpaceOnUse">
<stop stop-color="#3F3748"/>
<stop offset="1" stop-color="#3F3748" stop-opacity="0"/>
</linearGradient>
</defs>
</svg>
