<svg width="24" height="24" viewBox="0 0 24 24" fill="none" xmlns="http://www.w3.org/2000/svg">
<path d="M21 7H18C18 5.35 16.65 4 15 4H3C1.35 4 0 5.35 0 7V14C0 15.65 1.35 17 3 17V20L6 17C6 18.65 7.35 20 9 20H17L20 23V20H21C22.65 20 24 18.65 24 17V10C24 8.35 22.65 7 21 7ZM3 15C2.458 15 2 14.542 2 14V7C2 6.458 2.458 6 3 6H15C15.542 6 16 6.458 16 7V8H9.5C8.83696 8 8.20107 8.26339 7.73223 8.73223C7.26339 9.20107 7 9.83696 7 10.5V15H3ZM22 17C22 17.542 21.542 18 21 18H9C8.458 18 8 17.542 8 17V10.5C8 9.673 8.673 9 9.5 9H21C21.542 9 22 9.458 22 10V17Z" fill="#0000FF"/>
</svg>
